<svg width="154" height="112" viewBox="0 0 154 112" fill="none" xmlns="http://www.w3.org/2000/svg">
<path d="M-69.8989 175.22L-69.9297 174.866C-56.2199 173.678 -42.9009 168.093 -32.427 159.14C-29.9893 157.055 -27.6552 154.752 -25.398 152.525C-21.4066 148.585 -17.279 144.511 -12.4396 141.518C-8.48726 139.074 -3.93568 137.591 0.377274 137.343C5.22135 137.065 9.4745 138.351 12.6772 141.06C13.1397 141.451 13.5553 141.863 13.9201 142.288C18.0536 140.175 22.8675 138.814 28.6015 138.131C33.8406 137.508 39.1341 137.504 45.0131 137.56C55.6019 137.662 66.5513 137.767 77.1341 139.946C84.3786 141.438 91.4899 143.919 98.3667 146.317C100.057 146.907 101.805 147.517 103.527 148.102C124.271 155.153 143.151 158.68 160.026 158.68C175.469 158.68 189.231 155.728 201.225 149.822C203.582 148.66 206.495 146.572 208.143 144.03C206.901 143.921 205.616 143.614 204.503 142.889C202.489 141.577 200.875 139.465 201.806 137.706C201.927 137.455 202.99 135.375 204.9 135.133C206.211 134.966 207.586 135.716 208.987 137.362C209.018 137.379 209.043 137.404 209.06 137.435C209.853 138.873 209.995 140.43 209.482 142.062C209.304 142.628 209.055 143.179 208.751 143.713C209.343 143.739 209.918 143.725 210.448 143.7C219.116 143.282 227.654 139.076 233.288 132.45C235.392 129.976 236.745 127.6 237.425 125.186C238.246 122.271 238.177 118.837 237.221 114.981C234.408 103.637 226.088 94.9078 218.042 86.466C212.183 80.3181 206.124 73.9612 202.053 66.5426C201.102 64.8089 200.156 62.8028 199.987 60.6777C193.538 63.9177 186.612 66.3117 179.373 67.8014C171.627 69.3954 163.693 69.92 155.791 69.361C152.394 69.1206 148.165 68.8216 144.069 68.117C139.269 67.2916 135.628 66.0837 132.936 64.424C131.657 63.6353 130.316 61.988 129.351 60.0175C128.613 58.5111 128.181 56.9835 128.096 55.6353C124.236 56.6318 119.958 56.8349 115.378 56.2398C111.561 55.7442 107.522 54.695 103.371 53.1217C96.0569 50.35 90.3767 46.6789 88.7307 45.4462C87.4541 45.7718 86.1473 45.712 84.9844 45.2531C84.2839 44.9766 83.6266 44.3661 83.838 43.6775C84.0257 43.0671 84.7552 42.8811 85.3538 42.9664C86.454 43.1233 87.3285 43.8469 88.1747 44.5461C88.3813 44.7173 88.5945 44.8931 88.8065 45.0571C89.2576 44.9292 89.7041 44.7504 90.1375 44.5213C91.7753 43.655 92.9293 42.2257 93.3101 40.5962C93.2852 40.5192 93.2586 40.444 93.2319 40.3712C92.2981 40.4274 91.3176 40.335 90.3317 40.0875C89.3311 39.8359 88.331 38.9341 88.1474 38.1188C88.0474 37.6741 88.1806 37.2857 88.5335 36.9949C88.5761 36.96 88.6288 36.9434 88.6839 36.947C89.5851 37.0121 90.6296 37.1489 91.539 37.6699C92.3952 38.1602 93.03 38.9246 93.4682 39.9969C94.6477 39.888 95.7377 39.5262 96.6431 38.9234C98.2726 37.8393 99.2105 35.8693 99.0204 34.0995C98.815 34.154 98.6059 34.1978 98.3922 34.2292C96.8373 34.4589 95.074 33.7359 94.2012 32.5103C93.882 32.062 93.8513 31.4853 94.1201 31.0045C94.3883 30.5255 94.8928 30.2508 95.4381 30.2886C97.1363 30.4053 98.7238 31.6582 99.2128 33.2676C99.2502 33.3901 99.2815 33.5145 99.3082 33.6406C101.233 32.978 102.806 31.284 104.226 29.5118C104.42 29.2708 104.725 28.912 105.079 28.4963C105.793 27.6591 106.681 26.617 107.383 25.6879C108.511 24.1964 108.478 23.8778 108.46 23.8293C108.306 23.4154 107.156 23.0613 106.469 22.8499C106.197 22.7658 105.962 22.6936 105.795 22.6261C105.019 22.3123 104.053 21.973 103.036 21.7391C102.497 22.1909 101.944 22.6243 101.379 23.0364C100.425 23.7328 98.9701 24.3249 97.8699 24.078C97.3364 23.9584 96.9362 23.6599 96.681 23.1922C96.6431 23.1235 96.6466 23.0394 96.6898 22.9737C98.0304 20.9102 100.609 20.851 102.941 21.3548C105.474 19.2061 107.693 16.6345 109.435 13.8143C106.761 14.0819 104.182 14.9428 101.887 16.3272C101.49 16.6096 101.084 16.8773 100.668 17.1313L100.472 16.8352C100.87 16.5498 101.277 16.2816 101.693 16.0294C106.421 12.6638 109.736 7.29688 110.648 1.52437C109.583 4.27592 107.941 6.85161 105.852 9.03769C103.441 11.5595 100.495 13.4981 97.3305 14.6456C96.3583 14.9979 95.3493 15.2863 94.3729 15.5652C92.9814 15.9631 91.5426 16.374 90.2074 16.9738C84.8642 19.373 81.5264 24.554 79.6678 28.478C78.9288 30.0382 77.7902 31.3012 76.3756 32.1307C73.4381 33.8532 71.6665 32.4647 69.9541 31.1218C68.9345 30.3224 67.9718 29.5675 66.7781 29.4425C65.3901 29.2969 64.4362 29.5977 63.2283 29.9784C62.9116 30.0784 62.5841 30.1815 62.2259 30.2839C61.9085 30.3745 61.5882 30.4521 61.2684 30.4988C61.6604 31.0643 61.9618 31.6795 62.1684 32.2645C62.5592 33.37 62.7505 34.5406 62.9352 35.6727C63.0667 36.4786 63.2029 37.3123 63.4095 38.1105C64.8264 43.5769 69.3798 47.4493 74.4305 50.7343C76.6048 49.0403 79.1728 47.788 81.7182 47.1888C84.8061 46.461 87.6429 46.7458 89.9208 48.0124C92.111 49.2298 93.6736 50.221 95.0527 51.0955C97.2305 52.4769 98.8037 53.4752 101.243 54.2681C101.472 54.3427 101.914 54.4339 102.425 54.5392C104.753 55.02 106.849 55.5334 106.925 56.5181C106.945 56.7804 106.808 57.0332 106.518 57.2695C105.332 58.2346 101.633 58.8244 99.1673 58.1109C97.4306 57.6088 96.1149 56.7561 94.7264 55.8508C95.3019 56.3831 95.8242 56.9172 96.5252 57.6336C96.6543 57.7657 96.7893 57.9036 96.9314 58.0487C97.5212 58.6497 98.8197 61.5226 98.3501 62.4084C97.7545 63.5311 96.8823 63.0959 95.5619 62.438C95.3315 62.3232 95.0935 62.2048 94.8306 62.0798C93.3645 61.3823 91.9991 60.5137 90.8409 59.5521C91.018 59.9204 91.1589 60.3118 91.2596 60.7174C91.5444 61.8655 91.4946 63.0846 91.1198 64.1498C91.0316 64.4003 90.8131 64.5679 90.549 64.5868C90.2832 64.6058 90.0416 64.4702 89.9178 64.2321C87.2018 59.0186 81.8675 55.7466 76.709 52.5823L76.1642 52.2484C75.5899 51.8955 75.0179 51.5372 74.4507 51.1713C74.3766 51.2305 74.3032 51.2903 74.2304 51.3501C73.8058 51.7012 73.389 52.0885 72.9864 52.4627C71.9727 53.4048 70.9246 54.3794 69.6172 54.9046C67.4868 55.7602 65.1563 55.264 63.1946 54.5718C62.1643 55.1166 60.9576 55.2178 59.8018 55.2723C58.3102 55.3427 56.7352 55.3581 55.3159 54.7246C54.8689 54.525 54.5101 54.2615 54.2383 53.9306C53.1446 54.4392 51.9154 54.6002 50.8952 54.6784C49.2823 54.8021 46.9505 54.8045 45.3293 53.4083C44.9125 53.0489 44.6366 52.5284 44.5241 51.9114C43.9977 51.979 43.4062 51.9559 42.7341 51.8445C39.6883 51.3418 35.8982 50.7166 32.9228 48.833C32.6759 48.6767 32.5681 48.3949 32.6475 48.1142C32.7262 47.8365 32.9636 47.6547 33.252 47.6512C36.0882 47.618 38.925 46.9282 41.4563 45.6558C41.4652 45.651 41.4924 45.6374 41.4812 45.5977C41.4735 45.5705 41.4563 45.5575 41.4279 45.5598C37.3169 45.8891 33.1602 45.7766 29.0729 45.2241C26.3521 44.8564 24.9073 44.3395 22.6313 42.919C21.6412 42.3009 20.2166 41.3055 19.0508 40.0727C17.7913 38.7405 17.1216 37.4355 17.0595 36.1944C17.0553 36.1109 17.1009 36.0327 17.1755 35.9954C17.2501 35.9575 17.3401 35.9676 17.4047 36.0203C24.2075 41.5838 33.4296 44.1139 42.0727 42.7882C44.1747 42.4661 45.941 41.6093 47.6486 40.7809C49.4587 39.9028 51.3304 38.9951 53.5763 38.7476C56.0875 38.4705 58.8195 39.0661 61.9269 40.5689L61.7723 40.8887C54.9974 37.6119 51.5033 39.3065 47.8038 41.1006C46.0724 41.9403 44.2819 42.8089 42.1266 43.1393C33.4983 44.4627 24.2998 41.9864 17.4473 36.5112C17.8422 39.2343 21.3032 41.6702 22.8196 42.6164C25.072 44.0221 26.4261 44.5071 29.1202 44.8712C33.1821 45.4201 37.3133 45.532 41.3989 45.2046C41.5955 45.1886 41.7695 45.3106 41.8228 45.5012C41.8761 45.6907 41.7903 45.8843 41.6156 45.9725C39.0369 47.2687 36.1463 47.9715 33.2561 48.0059C33.1016 48.0076 33.0169 48.1124 32.9891 48.2101C32.9607 48.3102 32.9784 48.447 33.1123 48.5317C36.0266 50.3767 39.7771 50.9954 42.7915 51.4928C43.4281 51.5976 43.9852 51.6201 44.4779 51.555C44.4601 51.3258 44.4625 51.086 44.4874 50.8385C44.6158 49.5406 45.292 48.3659 46.2122 47.8395C46.735 47.4078 47.0565 47.6334 47.1708 47.7513C47.6492 48.2439 47.4935 49.8805 46.7137 50.7545C46.2021 51.3276 45.6047 51.6882 44.874 51.8499C44.9723 52.3851 45.2074 52.8334 45.5614 53.1383C46.719 54.1354 48.4054 54.5114 50.868 54.3231C51.8367 54.2491 52.9996 54.0987 54.0293 53.6345C53.6621 53.0282 53.5289 52.2383 53.6243 51.2542C53.7273 50.1914 54.2578 49.2529 54.9453 48.9183C55.397 48.6986 55.8855 48.7419 56.3575 49.0438C56.3894 49.0646 56.4149 49.0924 56.4321 49.1256C57.1906 50.5839 56.4137 52.4106 55.2241 53.3343C55.0145 53.4971 54.7937 53.6398 54.5645 53.7654C54.7961 54.0259 55.0939 54.2361 55.461 54.3995C56.8092 55.0011 58.3369 54.9851 59.7852 54.9164C60.7859 54.8691 61.8256 54.7868 62.7274 54.4001C62.5616 54.3373 62.3988 54.274 62.2395 54.2106C62.1856 54.1893 62.143 54.1467 62.1211 54.0928C61.7125 53.0832 61.7563 51.889 62.2395 50.8983C62.4716 50.4223 62.9447 50.1209 63.4747 50.1114C64.0076 50.1014 64.47 50.3749 64.7187 50.8415C65.3795 52.082 64.6601 53.5824 63.5901 54.3308C65.4286 54.949 67.5573 55.3469 69.484 54.573C70.7304 54.0727 71.7542 53.1211 72.7436 52.201C73.1504 51.8232 73.5702 51.4324 74.003 51.0748C74.0468 51.0387 74.0912 51.002 74.1357 50.9664C69.0636 47.6553 64.5008 43.7421 63.0637 38.1987C62.8529 37.3851 62.7156 36.5431 62.5823 35.729C62.4 34.6123 62.2117 33.4576 61.8315 32.3818C61.6148 31.7683 61.2892 31.1194 60.8611 30.5397C60.7894 30.5438 60.7178 30.5456 60.6467 30.5456C59.6792 30.5456 58.7431 30.1572 57.9402 28.8954C57.8691 28.7829 57.8703 28.639 57.9449 28.5289C58.0189 28.4182 58.1468 28.3643 58.2771 28.3874C59.4133 28.5905 60.3347 29.2951 61.0227 30.1679C61.3727 30.1329 61.7398 30.0518 62.1258 29.9411C62.4793 29.8398 62.8044 29.7374 63.1188 29.6385C64.3166 29.2607 65.3511 28.9351 66.8124 29.0884C68.1079 29.2246 69.1566 30.0465 70.1709 30.8417C71.8643 32.1692 73.4642 33.4239 76.1933 31.8234C77.5462 31.0306 78.6357 29.8209 79.3439 28.3252C81.228 24.3474 84.6167 19.0924 90.0588 16.6493C91.4177 16.0394 92.8689 15.6244 94.2722 15.2235C95.2427 14.9464 96.2458 14.6592 97.2062 14.3111C103.52 12.0219 108.711 6.59463 110.753 0.146518C110.786 0.0434907 110.891 -0.0180891 110.997 0.00322703C111.102 0.0245431 111.175 0.122242 111.165 0.230006C110.636 5.93147 107.771 11.3653 103.469 15.0826C105.421 14.1772 107.525 13.6159 109.685 13.4335C109.764 13.4264 109.84 13.4649 109.883 13.533C109.925 13.6011 109.925 13.6864 109.884 13.7545C108.145 16.628 105.919 19.2534 103.367 21.4537C104.312 21.6876 105.199 22.0014 105.926 22.2957C106.078 22.3573 106.306 22.4277 106.571 22.5095C107.464 22.7848 108.575 23.127 108.79 23.7049C109.003 24.2787 107.745 25.9123 105.347 28.7267C104.995 29.1399 104.69 29.497 104.5 29.7344C103.031 31.567 101.398 33.3191 99.3638 33.9965C99.4704 34.8438 99.3407 35.7462 98.9831 36.6024C98.539 37.6646 97.7764 38.5942 96.8367 39.2195C95.9077 39.8377 94.7957 40.216 93.5949 40.341C93.6162 40.4014 93.6363 40.4623 93.6564 40.5239C93.6683 40.5612 93.6701 40.5997 93.6618 40.6364C93.2674 42.3832 92.0424 43.9138 90.3004 44.8351C89.9273 45.0323 89.5442 45.1945 89.157 45.3206C91.031 46.6772 96.5099 50.1422 103.493 52.789C112.721 56.2866 120.992 57.1215 128.078 55.2711C128.071 54.8696 128.097 54.486 128.158 54.1271C128.469 52.2709 129.652 51.0618 131.578 50.6301C132.255 50.4785 132.944 50.729 133.376 51.2832C133.806 51.8363 133.88 52.5634 133.568 53.1821C133.266 53.7796 132.789 54.303 132.224 54.6559C131.448 55.1414 130.54 55.2522 129.663 55.3593C129.258 55.4091 128.841 55.46 128.441 55.5476C128.615 58.7983 130.931 62.7708 133.12 64.1202C139.13 67.8257 149.17 68.5356 155.814 69.0052C171.281 70.0988 186.509 67.0873 199.963 60.2899C199.951 59.9571 199.96 59.6214 199.992 59.2839C200.111 58.0055 200.67 56.7182 201.525 55.7537C202.448 54.7121 203.626 54.1384 204.841 54.1372C204.919 54.1372 204.994 54.1828 205.03 54.2538C206.07 56.302 204.062 58.5336 201.61 59.8363C201.185 60.0619 200.758 60.2839 200.329 60.5024C200.46 62.6163 201.409 64.6312 202.363 66.3703C206.411 73.7486 212.453 80.0883 218.297 86.2197C222.342 90.464 226.524 94.8521 229.954 99.5055C233.801 104.726 236.29 109.76 237.564 114.894C238.535 118.81 238.602 122.305 237.764 125.281C237.07 127.745 235.694 130.164 233.556 132.679C230.746 135.984 227.154 138.769 223.166 140.733C219.179 142.697 214.787 143.845 210.463 144.053C209.866 144.082 209.214 144.095 208.542 144.057C206.87 146.737 203.829 148.932 201.379 150.138C194.167 153.69 186.247 156.216 177.84 157.644C170.107 158.958 161.756 159.378 153.019 158.894C145.098 158.455 136.642 157.26 127.888 155.341C120.117 153.638 111.882 151.315 103.41 148.436C101.687 147.85 99.9376 147.241 98.2465 146.65C91.3804 144.255 84.2803 141.778 77.0589 140.291C66.5098 138.119 55.5776 138.014 45.006 137.913C35.0041 137.817 23.7065 137.708 14.1486 142.565C15.4495 144.198 16.0168 146.003 15.6917 147.635C15.4217 148.991 14.2114 150.21 12.7483 150.601C11.5919 150.91 10.5326 150.635 9.8422 149.846C9.23884 149.157 9.01739 148.337 9.18259 147.408C9.52898 145.463 11.4758 143.602 13.1379 142.696C13.2883 142.614 13.4399 142.533 13.5921 142.453C13.2528 142.065 12.8691 141.688 12.444 141.329C5.50497 135.459 -5.22412 137.468 -12.2567 141.818C-17.0617 144.79 -21.1751 148.849 -25.1523 152.775C-27.4142 155.007 -29.7524 157.315 -32.2002 159.407C-42.7298 168.409 -56.1198 174.024 -69.903 175.218L-69.8989 175.22ZM13.8307 142.733C13.6572 142.824 13.4843 142.916 13.312 143.01C11.7222 143.877 9.86234 145.643 9.53667 147.473C9.39101 148.29 9.58522 149.01 10.114 149.614C10.712 150.298 11.6399 150.533 12.6607 150.26C13.9977 149.903 15.1025 148.796 15.3471 147.569C15.6556 146.021 15.0978 144.297 13.8307 142.733ZM205.259 135.465C205.153 135.465 205.049 135.472 204.945 135.485C203.184 135.709 202.168 137.774 202.126 137.862L202.122 137.869C201.174 139.654 203.295 141.676 204.698 142.591C205.805 143.312 207.105 143.598 208.355 143.69C208.688 143.13 208.956 142.55 209.143 141.955C209.621 140.435 209.497 138.985 208.773 137.648C208.762 137.639 208.75 137.629 208.74 137.617C207.529 136.187 206.36 135.465 205.259 135.465L205.259 135.465ZM74.7491 50.9404C75.2796 51.2814 75.8149 51.6166 76.3519 51.9464L76.8967 52.2803C82.0966 55.4701 87.4736 58.7675 90.2346 64.0687C90.2926 64.1806 90.401 64.2416 90.5254 64.2327C90.6473 64.2239 90.745 64.1493 90.7859 64.0326C91.4123 62.2509 91.0316 60.1424 89.8936 58.6983C89.668 58.4768 89.4536 58.2518 89.2517 58.0244L89.501 57.7722C89.7396 57.9794 89.9605 58.2109 90.1618 58.4632C91.4573 59.7291 93.1384 60.8814 94.9846 61.7595C95.2504 61.8862 95.4902 62.0052 95.7217 62.1207C97.1517 62.8336 97.6242 63.0219 98.0375 62.2426C98.3726 61.6115 97.2826 58.9132 96.6792 58.298C96.5365 58.1529 96.4015 58.0144 96.2724 57.8823C95.0491 56.6318 94.3753 55.9426 93.0004 54.8389C92.9128 54.7684 92.895 54.6458 92.9589 54.5535C93.0229 54.4611 93.1437 54.4344 93.2402 54.4919C93.8193 54.8353 94.3623 55.1894 94.888 55.5316C96.2659 56.4299 97.5674 57.279 99.2673 57.7704C100.365 58.0878 101.831 58.16 103.291 57.9688C104.619 57.7947 105.771 57.4211 106.295 56.9947C106.429 56.8858 106.586 56.7194 106.573 56.5459C106.511 55.746 103.808 55.1876 102.355 54.8874C101.812 54.7755 101.383 54.6867 101.135 54.6062C98.6539 53.7997 97.0647 52.7913 94.8649 51.3957C93.4901 50.5235 91.9316 49.5353 89.7509 48.3227C85.0838 45.7286 78.8364 47.8075 74.7503 50.9392L74.7491 50.9404ZM204.755 54.4954C202.303 54.5564 200.563 57.0279 200.349 59.3188C200.324 59.5846 200.314 59.8493 200.317 60.1128C200.695 59.9198 201.072 59.7232 201.447 59.5243C203.141 58.6242 205.716 56.5643 204.755 54.4954ZM131.972 50.9433C131.868 50.9433 131.763 50.9546 131.659 50.9783C129.86 51.3809 128.801 52.4609 128.512 54.1869C128.458 54.5079 128.433 54.843 128.434 55.1876C128.829 55.1047 129.231 55.0556 129.623 55.0076C130.501 54.9004 131.33 54.7986 132.04 54.3551C132.55 54.0359 132.982 53.5629 133.255 53.0228C133.505 52.5284 133.445 51.9458 133.099 51.5023C132.82 51.1429 132.406 50.9428 131.972 50.9428L131.972 50.9433ZM62.4308 53.9051C62.6682 53.9992 62.9133 54.0928 63.165 54.184C63.2029 54.1621 63.2402 54.1396 63.2775 54.1159C64.2805 53.4853 64.9982 52.1187 64.4078 51.0108C64.2231 50.6645 63.8779 50.462 63.4835 50.4685C63.0821 50.4756 62.7369 50.6952 62.561 51.0558C62.1306 51.9387 62.0832 52.9992 62.4308 53.9051ZM55.5315 49.138C55.3858 49.138 55.2425 49.1717 55.1022 49.2404C54.5308 49.5181 54.0695 50.3613 53.9795 51.2909C53.8901 52.2158 54.0097 52.9364 54.3508 53.48C54.5799 53.3574 54.8002 53.2171 55.008 53.056C56.0732 52.2288 56.7796 50.6141 56.136 49.3257C55.9311 49.2008 55.7286 49.1386 55.5315 49.1386V49.138ZM46.7848 47.9449C46.6912 47.9449 46.5728 48.0047 46.4301 48.1243L46.4176 48.1349L46.4034 48.1432C45.5869 48.6033 44.9599 49.7017 44.8438 50.8764C44.8225 51.0896 44.8189 51.2962 44.8326 51.494C45.4768 51.3436 46.0032 51.0227 46.4514 50.52C47.1294 49.7603 47.243 48.3351 46.9186 48.0011C46.8819 47.9638 46.8375 47.9449 46.7853 47.9449H46.7848ZM85.0761 43.3027C84.6747 43.3027 84.2797 43.4525 84.1779 43.7823C84.0228 44.2868 84.6534 44.741 85.1146 44.9233C86.1248 45.3218 87.2533 45.3994 88.3695 45.1661C88.2274 45.0518 88.0864 44.9352 87.9479 44.8209C87.1402 44.153 86.3048 43.462 85.3035 43.3187C85.2289 43.308 85.1519 43.3027 85.0755 43.3027H85.0761ZM88.7182 37.307C88.5045 37.5036 88.4299 37.7505 88.495 38.0418C88.6496 38.7298 89.549 39.525 90.4194 39.7441C91.3283 39.9727 92.2318 40.0644 93.0939 40.0248C92.1199 37.7771 90.3436 37.4295 88.7182 37.3076V37.307ZM95.3416 30.6421C94.9638 30.6421 94.6198 30.8435 94.4315 31.1798C94.2302 31.5398 94.2533 31.9714 94.4919 32.306C95.2919 33.4292 96.9113 34.0912 98.3418 33.8798C98.5544 33.8484 98.7634 33.804 98.9683 33.7478C98.9434 33.6211 98.912 33.4961 98.8747 33.3724C98.4271 31.8986 96.9723 30.7511 95.4156 30.6445C95.3913 30.6427 95.3665 30.6421 95.3422 30.6421H95.3416ZM58.27 28.7497C58.9438 29.7883 59.7064 30.1696 60.5828 30.1892C59.9758 29.4851 59.2008 28.9309 58.27 28.7497ZM97.0362 23.0968C97.2411 23.4296 97.5478 23.6434 97.9487 23.7328C98.9405 23.9554 100.282 23.4 101.171 22.751C101.655 22.3976 102.13 22.0293 102.595 21.6462C100.482 21.2335 98.2341 21.3418 97.0362 23.0968Z" 

        className="fill-primary"

/>
</svg>
