<svg width="2699" height="692" viewBox="0 0 2699 692" fill="none" xmlns="http://www.w3.org/2000/svg">
<path d="M821.884 691.927C808.052 691.928 796.151 690.897 786.604 688.784C779.468 687.206 770.588 685.241 760.743 678.812C750.396 672.057 743.85 663.431 738.745 652.814C728.511 644.423 718.678 633.447 709.494 620.075C692.635 595.53 678.689 563.53 671.231 532.281C669.818 526.359 668.66 520.568 667.764 514.962C662.828 519.479 657.01 530.016 654.2 540.348C654.197 540.359 653.97 541.193 653.755 542.095C650.955 553.817 652.808 566.966 654.6 579.681C656.741 594.869 658.763 609.215 653.653 621.722C648.181 635.117 634.894 645.672 622.746 646.275C608.642 646.977 599.051 635.319 581.632 614.162L580.351 612.606C546.635 571.671 529.711 551.124 520.631 543.22C496.121 521.886 470.489 509.694 444.445 506.984C423.419 504.794 409.661 509.705 395.093 514.902C378.948 520.662 362.253 526.616 334.234 524.399C318.071 523.119 310.571 520.078 303.954 517.395C297.676 514.85 292.254 512.644 280.266 512.798C252.07 513.147 234.578 525.874 219.146 537.104C204.529 547.739 190.723 557.783 171.14 554.306C149.715 550.499 132.149 532.667 100.262 500.294C95.1294 495.084 91.0494 490.609 87.771 487.013C79.35 477.778 75.5064 473.563 68.8974 472.737C50.9136 470.488 29.0316 494.554 3.8484 544.257L0 542.308C26.4606 490.083 49.173 465.936 69.432 468.456C77.6214 469.479 82.0782 474.368 90.9588 484.107C94.212 487.675 98.2614 492.116 103.336 497.267C134.601 529.008 151.824 546.492 171.895 550.059C189.668 553.22 202.153 544.133 216.608 533.616C232.561 522.008 250.642 508.851 280.213 508.485C293.078 508.328 298.865 510.677 305.575 513.398C311.903 515.964 319.076 518.872 334.574 520.099C361.673 522.243 377.926 516.446 393.643 510.839C408.685 505.472 422.893 500.401 444.892 502.693C462.176 504.492 479.458 510.368 496.255 520.158C509.732 528.013 519.355 536.39 523.463 539.966C532.813 548.104 549.813 568.743 583.681 609.863L584.963 611.42C601.492 631.497 610.604 642.548 622.533 641.966C633.118 641.441 644.78 632.036 649.661 620.09C654.329 608.661 652.387 594.876 650.329 580.283C648.481 567.169 646.569 553.61 649.559 541.092C649.792 540.117 650.037 539.215 650.037 539.215C652.696 529.438 659.536 514.961 667.04 510.063C665.573 499.212 665.134 489.152 665.766 480.308C666.9 464.442 671.538 452.894 679.18 446.91C681.181 445.344 682.987 444.46 694.12 441.371C719.344 434.372 739.317 430.795 753.901 428.183C770.432 425.223 781.353 423.267 782.221 419.145C783.113 414.91 775.452 407.252 768.044 399.845C762.334 394.137 756.43 388.234 752.243 382.116C751.914 381.635 751.595 381.152 751.193 380.541C750.566 379.592 749.708 378.29 748.253 376.16C746.341 373.361 744.89 371.31 743.829 369.814C741.212 366.12 740.422 365.004 740.265 363.011C740.255 362.882 740.248 362.749 740.245 362.613C730.409 358.69 725.469 355.49 725.427 349.962C725.36 341.238 737.483 335.519 773.946 322.761C838.41 300.205 870.767 288.884 908.654 286.532C943.038 284.396 971.182 287.82 994.693 296.993C1002.53 300.051 1011.1 304.091 1017.61 307.799C1028.7 314.117 1029.56 316.938 1028.84 319.046C1027.53 322.86 1021.41 321.72 1005.05 318.678C998.674 317.492 990.736 316.016 981.975 314.676C981.173 314.554 901.024 302.634 833.874 319.793C827.933 321.311 822.302 323.22 822.245 323.24C816.691 325.13 812.668 326.863 809.731 328.128C809.24 328.34 808.775 328.54 808.334 328.728C802.323 331.287 799.228 332.186 795.643 333.226C792.725 334.073 789.419 335.032 783.796 337.134C772.403 341.393 763.793 345.696 755.881 351.084C750.677 354.627 747.149 357.698 745.544 360.039C747.964 360.947 750.646 361.918 753.581 362.981C762.319 366.147 773.195 370.088 786.459 375.688C806.864 384.302 821.742 392.108 834.869 398.995C858.971 411.64 874.894 419.994 903.083 421.305C907.107 421.494 915.433 421.661 925.996 420.668C955.658 417.881 972.817 408.671 990.983 398.921C1002.79 392.585 1014.99 386.033 1031.29 380.78C1045.77 376.116 1084.28 366.395 1129.17 376.863C1143.86 380.288 1178.25 388.308 1201.94 417.588C1216.25 435.272 1223.74 456.851 1222.62 463.937C1222.38 465.454 1221.76 466.547 1220.78 467.183C1218.24 468.835 1215.26 466.557 1211.9 463.641C1208.23 460.458 1202.56 454.901 1193.97 446.49C1191.7 444.271 1189.22 441.841 1186.5 439.189C1164.91 418.112 1153.02 406.502 1151.26 405.206C1113.49 377.382 1052.46 399.63 1045.63 402.258C1027.71 409.148 994.991 425.883 977.125 460.559C971.809 470.875 967.44 483.605 965.438 494.613C963.322 506.246 964.487 512.625 966.581 513.788C967.01 514.025 969.75 514.748 981.629 505.583C994.58 495.591 1000.89 487.356 1007.58 478.639C1011.7 473.269 1015.96 467.717 1022 461.315C1041.5 440.678 1061.46 430.643 1069.14 427.287C1078.53 423.181 1089.18 418.529 1102.82 418.079C1121.48 417.461 1139.26 425.26 1164.2 444.983C1191.24 466.372 1208.14 487.476 1219.32 501.441C1226.12 509.927 1232.53 517.935 1234.86 516.923C1235.48 516.652 1238.45 514.391 1236.25 496.41C1234.85 484.955 1231.9 471.291 1229.75 461.316C1225.56 441.885 1223.25 431.182 1216.48 420.068C1203.62 398.98 1183.35 389.988 1167.07 382.764L1165.85 382.224C1095.29 350.879 1059.88 335.147 1043.25 316.562C1027.73 299.223 1028.1 286.315 1028.57 269.973C1029.04 253.774 1029.63 233.614 1015.15 200.559C1005.46 178.437 967.942 103.424 930.778 38.9122C929.504 36.7 926.866 32.1196 928.744 27.9262C930.587 23.8108 936.284 21.0544 945.679 19.7338C962.807 17.3272 997.453 19.6834 1038.73 34.2484C1051.82 38.8684 1067.21 45.3244 1083.09 54.187C1079.48 45.1672 1077.73 34.8532 1078.23 25.2682C1078.83 13.6702 1082.75 5.10096 1088.97 1.75776C1092.58 -0.177844 1097 -0.459827 1102.12 0.919573C1119.69 5.65237 1146.01 8.5264 1173.88 11.5684C1249.24 19.7968 1343.04 30.0364 1358.39 83.6716C1362.48 97.972 1359.38 110.476 1357.12 119.606C1343.59 174.214 1330.22 224.831 1318.42 269.49C1305.9 316.89 1295.09 357.825 1288.54 386.861C1285.11 402.087 1283 413.361 1282.09 421.328C1280.85 432.266 1282.25 434.181 1282.47 434.415C1282.48 434.415 1282.48 434.415 1282.48 434.415C1282.73 434.415 1284.3 434.226 1288.47 430.149C1291.99 426.711 1296.53 421.35 1302.37 413.76C1353.95 346.737 1397.45 247.595 1420.82 194.333C1425.73 183.14 1429.61 174.299 1432.4 168.458C1434.36 164.335 1439.58 153.384 1451.28 146.263C1459.09 141.509 1466.45 140.498 1468.87 140.165C1489.16 137.381 1512.25 148.536 1518.62 157.14C1524.64 165.274 1521.81 179.596 1509.97 200.925C1508.67 203.278 1507.24 205.724 1505.7 208.263C1519.55 199.242 1531.72 196.073 1543.08 198.219C1556.7 200.792 1573.22 211.718 1577.02 226.899C1580.24 239.784 1573.86 253.161 1556.33 270.275C1540.29 285.929 1515.72 304.085 1484.61 327.073C1473.73 335.108 1462.2 343.629 1450.05 352.764C1454.98 349.859 1459.99 347.375 1465.16 345.357C1469.19 343.784 1474.73 341.906 1481.9 341.346C1499.76 339.954 1511.77 347.862 1526.97 357.875C1531.05 360.565 1535.27 363.347 1539.93 366.155C1557.77 376.924 1573.68 383.04 1586.47 387.954C1600.9 393.498 1612.18 397.835 1618.91 406.013C1623 407.123 1626.85 408.867 1630.35 411.392C1633.37 413.57 1637.93 417.677 1642.52 424.88C1649.83 436.362 1649.73 446.014 1649.65 455.348C1649.57 463.569 1649.49 472.07 1654.27 482.534C1657.04 488.595 1660.45 493.231 1663.46 497.321C1668.01 503.507 1671.6 508.393 1669.11 513.974C1666.7 519.347 1660.16 521.063 1658.01 521.628C1638.43 526.767 1589.62 525.503 1546.56 524.387C1526.78 523.874 1508.1 523.389 1495 523.633C1450.89 524.452 1391.93 534.604 1368.84 545.357C1364.05 547.586 1346.34 552.366 1337.83 554.663C1335.79 555.213 1334.17 555.648 1333.73 555.783L1333.59 555.824C1325.75 558.204 1315.98 561.168 1308.09 556.187C1306.53 555.2 1301.45 551.62 1301.94 547.04C1302.64 540.513 1313.91 537.434 1323.65 535.482C1442.66 511.626 1459.97 510.338 1460.65 510.295C1485.44 508.719 1510.55 505.619 1534.83 502.62C1554.01 500.251 1573.85 497.801 1593.44 496.112L1593.64 496.095C1605.25 495.095 1629.4 493.013 1635.51 479.327C1638.95 471.606 1637.05 459.497 1632 456.986C1629.49 455.738 1626.24 456.962 1621.56 458.972C1602.29 467.249 1591.7 471.8 1589.03 473.607C1568.38 487.596 1528.81 494.314 1474.05 503.61C1448.11 508.014 1421.56 511.061 1395.14 512.665C1385.25 513.266 1370.17 513.984 1357.52 514.196C1350.55 514.311 1345.03 514.263 1341.12 514.049C1335.3 513.731 1332.49 513.152 1332.25 510.723C1332 508.233 1334.39 507.021 1343.87 504.826C1349.84 503.441 1358.33 501.798 1369.81 499.803C1390.82 496.153 1417.87 492.03 1441.74 488.392C1456.37 486.162 1468.42 484.42 1478.11 483.02C1510.06 478.401 1522.02 476.672 1543.31 469.769C1560.55 464.179 1581.15 456.047 1601.8 446.699C1602.14 445.533 1603.66 444.687 1605.35 443.749C1609.48 441.455 1618.07 436.68 1620.6 429.213C1622.55 423.447 1620.31 417.676 1619.35 415.212C1618.57 413.228 1617.59 411.449 1616.41 409.829C1595.25 404.941 1566.55 417.712 1548.19 425.879C1547.03 426.397 1545.91 426.893 1544.84 427.364C1530.54 433.676 1451.02 460.244 1292.6 513.175L1292.32 513.269C1285.52 515.54 1264.83 522.45 1263.67 533.31C1263.01 539.495 1268.87 545.57 1274.04 550.929C1286.07 563.399 1300.08 568.46 1304.09 569.715C1328.39 577.323 1365.77 566.582 1401.91 556.194C1412.6 553.122 1422.7 550.219 1432.53 547.756C1472.83 537.661 1492.93 539.123 1510.67 540.409C1528.59 541.712 1544.07 542.835 1576.23 532.955C1576.61 532.838 1614.94 521.327 1673.13 526.419C1681.92 527.188 1686.1 528.924 1686.67 532.048C1687.32 535.568 1683.41 538.868 1673.18 543.435C1642.6 557.086 1592.83 549.722 1590.72 549.401C1537.41 541.285 1488.01 551.627 1389.59 572.23L1389.09 570.13L1389.54 572.241C1383.12 573.584 1379.9 574.258 1376.17 575.159C1352.62 580.853 1337.42 587.442 1326.32 592.253C1312.68 598.162 1304.44 601.73 1293.76 598.333C1288.68 596.718 1287.09 594.734 1283.94 590.782C1280.75 586.802 1275.95 580.785 1263.96 570.163C1249.59 557.415 1235.66 547.446 1229.3 544.023C1231.39 547.071 1235.1 552.144 1240.05 558.89C1248.42 570.299 1265.84 594.039 1280.68 603.764C1281.96 604.596 1283.26 605.387 1283.28 605.394C1283.37 605.453 1293.13 611.302 1303.38 614.193C1314.67 617.378 1334.15 605.124 1341.49 600.51C1342.02 600.176 1342.5 599.873 1342.93 599.606C1351.1 594.523 1371.83 588.812 1413.14 577.433C1460.45 564.4 1508.1 560.692 1539.74 559.877C1574.03 558.992 1597.47 561.222 1597.7 561.244C1605.66 562.017 1613.44 562.98 1620.97 563.913C1653.91 567.992 1682.36 571.515 1696.45 554.903C1700.21 550.465 1702.72 544.588 1707.72 532.881C1714.48 517.026 1716.19 507.336 1717.56 499.549C1718.9 491.983 1720.05 485.448 1725.25 476.537C1728.21 471.465 1744.44 445.958 1773.24 441.956C1776.77 441.465 1787.52 439.973 1799.48 444.664C1817.94 451.902 1826.44 468.62 1835.43 486.319C1839.79 494.892 1842.58 502.151 1845.27 509.169C1849.79 520.928 1853.68 531.083 1863.71 543.816C1866.12 546.885 1868.4 549.482 1870.49 551.535C1887.05 567.824 1906.79 571.625 1910.59 572.222C1944.8 577.608 1979.69 533.507 1997.44 506.741C2009.13 489.125 2017.53 470.39 2031.44 439.353C2034.08 433.474 2036.33 428.282 2038.31 423.7C2046.65 404.416 2050.83 394.737 2062.24 383.85C2070.84 375.635 2089.15 361.449 2115.09 358.761C2148.71 355.271 2174.61 373.851 2190.08 384.948C2202.77 394.045 2208.09 400.499 2223.88 419.66C2230.15 427.259 2237.94 436.715 2248.51 449.144C2276.48 482.042 2290.51 498.54 2296.93 502.931C2332.43 527.214 2379.08 514.554 2416.57 504.381C2422.95 502.648 2428.98 501.011 2434.64 499.648C2468.29 491.54 2504.53 489.522 2542.33 493.655C2590.88 498.96 2643.54 514.497 2698.85 539.834L2697.05 543.756C2599.37 499.01 2511.43 485.582 2435.65 503.841C2430.05 505.19 2424.05 506.819 2417.7 508.544C2398.89 513.648 2377.57 519.432 2356.2 520.85C2331.23 522.507 2311.04 517.81 2294.49 506.492C2287.6 501.775 2273.44 485.129 2245.24 451.966C2234.63 439.484 2226.83 430.013 2220.55 422.403C2205.03 403.568 2199.8 397.223 2187.57 388.453C2171.62 377.018 2147.52 359.736 2115.54 363.051C2089.95 365.703 2071.82 380.662 2065.22 386.97C2054.45 397.251 2050.38 406.663 2042.27 425.412C2040.28 430.005 2038.03 435.212 2035.39 441.105C2021.37 472.356 2012.92 491.213 2001.04 509.124C1983.78 535.134 1950.68 576.976 1916.33 576.981C1914.19 576.981 1912.06 576.819 1909.91 576.483C1905.9 575.85 1884.96 571.823 1867.47 554.609C1865.25 552.429 1862.84 549.696 1860.32 546.484C1849.89 533.238 1845.69 522.297 1841.25 510.716C1838.59 503.799 1835.85 496.648 1831.59 488.275C1822.97 471.327 1814.83 455.319 1797.9 448.68C1786.99 444.402 1777.09 445.777 1773.84 446.229C1746.44 450.035 1730.68 475.788 1728.97 478.712C1724.16 486.956 1723.12 492.843 1721.81 500.297C1720.4 508.302 1718.65 518.263 1711.68 534.574C1706.52 546.681 1703.92 552.758 1699.74 557.693C1684.14 576.083 1654.62 572.427 1620.44 568.194C1612.94 567.266 1605.19 566.305 1597.29 565.538C1596.36 565.448 1504 556.874 1414.28 581.592C1373.38 592.86 1352.85 598.517 1345.21 603.269C1344.78 603.533 1344.31 603.833 1343.78 604.163C1336.34 608.843 1320.16 619.017 1307.44 619.019C1305.61 619.019 1303.86 618.81 1302.21 618.345C1291.39 615.293 1281.46 609.339 1281.05 609.088C1280.99 609.054 1279.66 608.251 1278.32 607.373C1262.82 597.221 1245.09 573.056 1236.57 561.443C1230.31 552.912 1227.02 548.385 1225.25 545.73C1223.67 543.359 1222.17 541.119 1223.84 539.342C1225.35 537.738 1227.82 537.078 1241.2 546.495C1249 551.981 1258.58 559.623 1266.83 566.937C1279.08 577.805 1284.23 584.243 1287.3 588.09C1290.32 591.866 1291.23 593.005 1295.07 594.223C1304.21 597.131 1311.45 593.992 1324.6 588.296C1335.85 583.422 1351.25 576.749 1375.16 570.968C1378.95 570.051 1382.19 569.373 1388.65 568.02L1388.7 568.01C1441.54 556.949 1480.32 548.83 1513.23 544.92C1512.28 544.853 1511.32 544.784 1510.36 544.714C1492.09 543.386 1473.2 542.015 1433.58 551.943C1423.82 554.388 1413.76 557.28 1403.1 560.343C1366.35 570.906 1328.34 581.829 1302.8 573.834C1298.54 572.502 1283.67 567.132 1270.94 553.928C1265.4 548.186 1258.51 541.043 1259.38 532.855C1260.83 519.239 1282.71 511.932 1290.95 509.181L1291.23 509.086C1449.53 456.197 1528.98 429.65 1543.1 423.42C1544.16 422.951 1545.28 422.456 1546.44 421.94C1563.7 414.26 1589.78 402.662 1611.39 404.68C1605.21 399.775 1596.28 396.347 1584.92 391.982C1571.98 387.006 1555.86 380.814 1537.7 369.848C1532.97 366.996 1528.71 364.19 1524.6 361.477C1510.09 351.918 1498.63 344.369 1482.23 345.647C1475.63 346.161 1470.48 347.91 1466.73 349.375C1438.84 360.268 1415 385.682 1384.83 417.858C1375.31 428.004 1365.48 438.495 1354.63 449.479C1341.22 463.064 1322.39 481.014 1295.63 499.395C1293.47 500.884 1285.81 506.101 1278.35 510.692C1273.89 513.432 1270.25 515.492 1267.52 516.814C1263.52 518.751 1260.73 519.57 1259.2 517.671C1257.48 515.531 1259.14 512.408 1266.03 504.819C1270.35 500.061 1276.7 493.665 1284.9 485.81C1299.34 471.979 1315.42 457.548 1320.7 452.807C1383.55 396.381 1438.17 356.028 1482.05 323.604C1542.42 278.991 1578.87 252.063 1572.83 227.946C1569.59 214.994 1554.75 204.815 1542.28 202.458C1529.41 200.024 1515.39 205.515 1499.58 217.947C1490.11 232.325 1477.56 249.153 1462.07 268.218C1440.37 294.923 1414.99 323.504 1390.15 350.601C1378.83 366.504 1366.87 383.503 1354.21 401.486L1354.18 401.538C1353.58 402.387 1351.77 404.967 1349.29 408.264C1339.09 421.854 1327.41 434.663 1314.57 446.336C1307.78 452.501 1298.74 460.107 1291.54 465.713C1287.48 468.875 1284.15 471.296 1281.64 472.908C1278.56 474.888 1275.87 476.383 1274.16 474.611C1272.34 472.727 1274.26 469.92 1276.95 466.446C1279.22 463.524 1282.74 459.416 1287.72 453.888C1297.12 443.461 1310.83 428.945 1326.72 412.138C1344.58 393.236 1365.49 371.108 1386.78 347.889C1416.58 306.019 1441.85 271.868 1464.06 246.704C1475.82 233.372 1486.48 222.886 1496.3 215.088C1500.13 209.246 1503.43 203.822 1506.2 198.832C1516.99 179.411 1520 166.248 1515.16 159.708C1510.05 152.814 1488.83 141.779 1469.46 144.44C1467.26 144.742 1460.57 145.661 1453.53 149.949C1442.93 156.402 1438.11 166.51 1436.29 170.315C1433.54 176.095 1429.67 184.908 1424.78 196.067C1401.33 249.497 1357.69 348.952 1305.8 416.391C1289.82 437.155 1284.29 440.165 1280.55 438.284C1276.15 436.071 1275.2 426.744 1284.06 387.135C1290.6 357.936 1301.56 316.439 1314.25 268.39C1326.04 223.746 1339.41 173.146 1352.94 118.569C1355.2 109.429 1358.02 98.053 1354.25 84.8596C1339.69 34.0114 1247.5 23.9458 1173.41 15.8578C1145.37 12.7966 1118.89 9.90519 1101.04 5.09679C1099.5 4.68159 1094.94 3.45219 1091.02 5.55939C1080.68 11.1118 1079.49 37.1644 1088.71 56.2438C1088.98 56.8042 1089.26 57.3592 1089.55 57.91C1102.78 65.788 1116.19 75.364 1128.75 86.9602C1132.92 87.9136 1137.09 88.5808 1141.21 89.2408C1152.16 90.9934 1163.48 92.8054 1173.76 99.9022C1187.79 109.584 1191.58 122.882 1197.87 144.912C1198.86 148.395 1199.89 151.997 1201.04 155.876C1211.75 191.982 1219.49 206.193 1226.96 219.936C1233.98 232.829 1240.6 245.008 1248.77 273.912C1273.33 360.864 1264.95 434.462 1260.44 474.003C1255.59 516.599 1252.64 520.41 1249.34 520.411C1249.3 520.411 1249.26 520.41 1249.21 520.409C1246.2 520.325 1245.26 516.494 1244.51 508.979C1243.89 502.77 1243.43 493.709 1242.85 482.238C1241.05 446.641 1238.04 387.062 1225.23 316.152C1213.71 252.42 1199.11 206.51 1176.42 162.639C1163.52 137.7 1156.42 123.962 1143.16 108.226C1137.92 102.006 1132.39 96.2464 1126.67 90.9154C1116.86 88.567 1107.01 84.5692 1097.53 75.5074C1093.03 71.2012 1089.27 66.3352 1086.32 61.009C1068.81 50.692 1051.65 43.384 1037.29 38.3176C996.752 24.0106 962.929 21.6676 946.281 24.007C935.635 25.5034 933.224 28.48 932.683 29.6902C931.703 31.876 933.53 35.0464 934.511 36.7498C969.143 96.8662 1007.74 172.896 1019.1 198.83C1033.97 232.772 1033.37 253.469 1032.89 270.099C1032.42 286.082 1032.09 297.63 1046.46 313.686C1062.48 331.583 1097.61 347.189 1167.6 378.282L1168.82 378.823C1185.66 386.291 1206.61 395.585 1220.16 417.824C1227.31 429.561 1229.68 440.517 1233.97 460.407C1241.85 496.915 1244.6 517.364 1236.6 520.874C1231.24 523.223 1226.13 516.845 1215.96 504.138C1204.9 490.325 1188.18 469.451 1161.52 448.367C1137.47 429.341 1120.5 421.813 1102.96 422.391C1090.15 422.813 1079.91 427.29 1070.87 431.24C1063.43 434.49 1044.09 444.216 1025.14 464.277C1019.25 470.519 1015.06 475.982 1011.01 481.265C1004.14 490.212 997.661 498.664 984.265 508.999C971.323 518.985 967.113 519.014 964.49 517.56C954.398 511.961 963.105 478.355 973.291 458.584C991.814 422.637 1025.59 405.342 1044.08 398.233C1048.76 396.433 1065.64 390.373 1086.34 387.968C1114.31 384.719 1137.01 389.35 1153.82 401.734C1155.82 403.208 1166.38 413.516 1189.52 436.104C1192.24 438.758 1194.72 441.189 1196.99 443.409C1208.53 454.709 1215.87 461.892 1218.41 463.209C1219.17 458.862 1213.08 438.221 1198.59 420.303C1175.83 392.175 1142.45 384.39 1128.19 381.066C1084.36 370.844 1046.75 380.333 1032.62 384.888C1016.69 390.02 1004.66 396.478 993.025 402.723C974.464 412.686 956.932 422.096 926.402 424.964C915.575 425.981 907.021 425.81 902.884 425.616C873.739 424.26 857.479 415.73 832.867 402.817C819.814 395.969 805.021 388.208 784.783 379.664C771.622 374.108 760.804 370.188 752.113 367.04C749.737 366.179 747.521 365.376 745.463 364.612C745.874 365.234 746.474 366.087 747.35 367.323C748.419 368.832 749.884 370.9 751.816 373.73C753.29 375.889 754.159 377.207 754.794 378.169C755.18 378.756 755.487 379.22 755.804 379.682C759.764 385.469 765.523 391.227 771.094 396.795C780.067 405.766 787.816 413.513 786.443 420.036C784.976 427.003 774.845 428.817 754.662 432.431C740.162 435.028 720.304 438.584 695.275 445.53C684.447 448.535 683.168 449.269 681.84 450.308C671.174 458.66 667.451 480.079 671.157 508.431C680.911 507.164 693.538 524.072 709.724 560.054C720.067 583.046 726.164 602.754 731.062 618.59C734.863 630.878 738.076 641.262 742.174 650.052C753.25 658.984 764.761 664.733 776.369 667.035C791.588 670.052 802.967 666.329 823.625 659.568L825.588 658.926C880.665 640.919 935.81 620.021 989.141 599.811C1050.92 576.398 1114.8 552.189 1178.99 532.316L1179.46 532.17C1184.25 530.692 1195.66 527.166 1202.85 521.778C1199.2 517.244 1194.9 512.543 1190.51 507.731C1170.06 485.356 1148.01 474.758 1139.47 471.24C1121.64 463.892 1108.76 458.581 1093.56 461.058C1073.96 464.25 1059.88 478.748 1043.59 495.536C1030.82 508.689 1016.35 523.596 996.933 534.949C992.254 537.685 985.738 540.994 976.814 542.314C957.802 545.124 942.403 536.592 935.002 532.491L934.827 532.395C932.377 531.038 929.615 529.521 926.593 527.862C890.936 508.284 816.737 467.544 796.691 435.57C793.208 430.014 790.04 423.842 792.964 420.182C796.181 416.153 804.167 418.564 811.554 421.453C828.534 428.094 846.471 446.79 865.462 466.584C892.594 494.866 923.346 526.919 955.873 527.062C964.153 527.101 970.677 525.114 974.583 523.93C991.622 518.762 1000.85 509.057 1017.6 491.441C1023.09 485.664 1029.31 479.115 1036.89 471.587C1055.84 452.745 1066.28 442.367 1076.96 438.219C1102.62 428.258 1128.08 435.798 1137.83 439.503C1146.06 442.624 1148.42 444.996 1156.25 452.854C1162.78 459.407 1173.72 470.375 1195.87 489.542L1197.16 490.655C1207.42 499.523 1214.21 505.383 1213.37 513.324C1213.01 516.76 1211.28 519.76 1208.76 522.369C1213.06 528.135 1216.21 533.727 1217.22 539.145C1219.09 549.245 1213.92 560.283 1201.84 571.95C1186.15 587.109 1158.19 603.725 1120.98 620.002C1086.57 635.052 1045.36 649.419 1001.82 661.55C931.288 681.195 866.534 691.927 821.884 691.927ZM747.05 658.997C751.143 665.36 756.213 670.704 763.1 675.2C772.288 681.199 780.742 683.07 787.535 684.573C807.634 689.022 839.024 688.586 878.312 683.312C915.307 678.347 957.614 669.384 1000.66 657.392C1093 631.666 1168.94 597.737 1198.84 568.845C1209.81 558.246 1214.57 548.517 1212.97 539.928C1212.12 535.334 1209.35 530.401 1205.52 525.22C1197.92 530.983 1186.74 534.436 1180.74 536.291L1180.26 536.436C1116.21 556.269 1052.39 580.455 990.668 603.844C937.292 624.072 882.099 644.988 826.928 663.026L824.966 663.668C803.616 670.656 791.855 674.505 775.528 671.267C765.885 669.353 756.334 665.219 747.05 658.997ZM671.763 512.703C672.671 518.636 673.891 524.845 675.427 531.28C682.767 562.033 696.479 593.507 713.05 617.633C719.981 627.725 727.267 636.399 734.8 643.572C732.065 636.429 729.623 628.536 726.94 619.864C721.823 603.322 716.023 584.573 705.79 561.824C685.544 516.818 675.442 512.291 671.763 512.703ZM1629.72 452.168C1631.15 452.168 1632.55 452.447 1633.92 453.128C1641.71 457.003 1643.5 471.99 1639.44 481.086C1632.31 497.095 1606.44 499.325 1594.01 500.396L1593.81 500.413C1574.29 502.095 1554.5 504.54 1535.36 506.904C1511.01 509.91 1485.84 513.02 1460.92 514.604C1460.23 514.65 1442.63 516.035 1324.5 539.715C1308.42 542.939 1306.36 546.235 1306.23 547.503C1306.07 548.988 1308.2 551.162 1310.39 552.542C1316.62 556.471 1324.97 553.935 1332.34 551.699L1332.48 551.658C1332.99 551.504 1334.46 551.105 1336.7 550.5C1344.44 548.412 1362.56 543.521 1367.01 541.449C1393.44 529.145 1454.49 520.074 1494.92 519.323C1508.11 519.077 1526.84 519.563 1546.67 520.078C1589.45 521.186 1637.93 522.444 1656.92 517.459C1661.42 516.278 1664.12 514.562 1665.17 512.216C1666.57 509.075 1664.36 505.826 1659.98 499.881C1657 495.834 1653.3 490.797 1650.34 484.33C1645.16 472.993 1645.25 464.004 1645.33 455.311C1645.42 446.205 1645.5 437.603 1638.88 427.2C1634.66 420.575 1630.54 416.85 1627.83 414.894C1626.18 413.706 1624.44 412.713 1622.61 411.895C1622.88 412.465 1623.13 413.05 1623.36 413.652C1624.49 416.553 1627.14 423.35 1624.68 430.603C1622.22 437.87 1615.56 442.734 1610.65 445.691L1611.23 447.111L1609.35 447.998C1609.28 448.029 1609.17 448.078 1609.02 448.139C1608.84 448.22 1608.58 448.341 1608.24 448.497C1585.92 458.804 1563.33 467.817 1544.64 473.877C1522.99 480.894 1510.94 482.637 1478.72 487.295C1469.04 488.693 1457 490.435 1442.41 492.659C1419.75 496.113 1394.08 500.025 1373.58 503.535C1356.22 506.508 1346.77 508.485 1341.67 509.786C1352.28 510.281 1374.81 509.583 1394.88 508.365C1421.14 506.769 1447.54 503.741 1473.32 499.363C1527.55 490.157 1566.73 483.505 1586.61 470.04C1589.62 468.003 1599.08 463.937 1619.82 455.027C1623.12 453.611 1626.48 452.168 1629.72 452.168ZM1557.44 542.342C1568.89 542.507 1580.03 543.414 1591.37 545.141C1591.87 545.217 1642 552.633 1671.42 539.5C1680.23 535.568 1681.99 533.543 1682.34 532.875C1681.83 532.471 1679.81 531.338 1672.75 530.721C1615.46 525.706 1577.86 536.969 1577.49 537.083C1570.04 539.372 1563.42 541.082 1557.44 542.342ZM934.387 527.222C935.263 527.705 936.107 528.171 936.917 528.62L937.093 528.717C944.08 532.588 958.619 540.645 976.182 538.045C984.374 536.834 990.412 533.763 994.755 531.224C1013.66 520.168 1027.92 505.485 1040.49 492.531C1057.32 475.193 1071.85 460.22 1092.87 456.798C1109.27 454.126 1122.63 459.632 1141.11 467.25C1149.92 470.879 1172.66 481.803 1193.69 504.82C1198.08 509.619 1202.36 514.314 1206.07 518.901C1207.74 517.061 1208.85 515.048 1209.08 512.868C1209.68 507.169 1203.58 501.896 1194.34 493.914L1193.05 492.8C1170.77 473.529 1159.77 462.491 1153.2 455.896C1145.49 448.162 1143.65 446.324 1136.3 443.532C1127.01 440.004 1102.78 432.816 1078.52 442.236C1069.07 445.904 1059.86 454.821 1039.92 474.644C1032.4 482.128 1026.19 488.654 1020.72 494.411C1003.47 512.56 993.964 522.557 975.834 528.056C971.968 529.229 964.764 531.437 955.853 531.374C948.563 531.342 941.406 529.842 934.387 527.222ZM1134.54 92.5138C1138.64 96.5902 1142.62 100.899 1146.45 105.447C1160.03 121.553 1167.21 135.443 1180.25 160.659C1203.15 204.934 1217.87 251.208 1229.47 315.387C1242.33 386.57 1245.35 446.322 1247.16 482.022C1247.88 496.295 1248.52 508.972 1249.54 514.2C1250.88 510.327 1253.12 500.133 1256.16 473.522C1260.63 434.271 1268.95 361.221 1244.62 275.086C1236.58 246.647 1230.07 234.674 1223.17 221.999C1215.59 208.059 1207.74 193.646 1196.9 157.104C1195.75 153.203 1194.72 149.591 1193.72 146.097C1187.7 124.994 1184.06 112.257 1171.31 103.453C1161.83 96.9112 1151.48 95.2546 1140.53 93.5008C1138.54 93.1834 1136.55 92.8636 1134.54 92.5138ZM798.323 422.343C796.902 422.343 796.457 422.719 796.334 422.873C796.099 423.167 795.188 425.052 800.345 433.277C816.814 459.545 872.05 492.514 910.051 513.783C893.165 501.689 877.223 485.073 862.348 469.569C843.696 450.128 826.078 431.763 809.984 425.469C803.576 422.963 800.147 422.343 798.323 422.343ZM1420.89 374.999C1391.32 397.924 1358.74 424.456 1323.58 456.018C1280.35 494.831 1267.87 508.705 1264.3 513.579C1269.5 511.256 1280.73 504.406 1293.19 495.842C1319.64 477.668 1338.28 459.899 1351.56 446.45C1362.37 435.505 1372.18 425.035 1381.68 414.909C1395.75 399.905 1408.46 386.352 1420.89 374.999ZM1367.65 374.916C1354.25 389.277 1341.41 402.864 1329.85 415.102C1308.93 437.241 1288.93 458.401 1281.14 468.059C1288.38 463.019 1301.29 452.57 1311.66 443.145C1324.3 431.656 1335.8 419.049 1345.84 405.677C1348.27 402.433 1350.06 399.893 1350.65 399.058L1350.68 399.005C1356.49 390.755 1362.14 382.723 1367.65 374.916ZM927.728 290.232C921.681 290.232 915.418 290.435 908.921 290.838C871.63 293.153 839.461 304.409 775.371 326.834C745.071 337.435 729.695 343.918 729.74 349.931C729.764 353 733.837 355.415 741.452 358.461C743.003 355.818 746.39 352.33 753.453 347.519C761.663 341.928 770.555 337.479 782.285 333.095C788.06 330.936 791.45 329.952 794.44 329.085C797.891 328.083 800.872 327.218 806.644 324.759C807.08 324.574 807.539 324.376 808.024 324.167C811.028 322.874 815.141 321.102 820.856 319.157C821.091 319.077 826.696 317.176 832.805 315.615C900.821 298.234 981.816 310.289 982.626 310.413C991.455 311.763 999.431 313.247 1005.84 314.438C1013.12 315.792 1020.6 317.184 1023.85 317.193C1020.45 313.961 1008.07 306.844 993.124 301.014C974.621 293.793 953.096 290.232 927.728 290.232ZM1486.42 229.455C1465.37 249.57 1441.24 280.126 1412.71 319.231C1428.84 301.137 1444.57 282.915 1458.72 265.5C1469.37 252.384 1478.62 240.346 1486.42 229.455ZM1095.07 66.406C1096.72 68.509 1098.54 70.5064 1100.51 72.3904C1106.47 78.0868 1112.66 81.6436 1118.93 84.037C1111.14 77.452 1103.11 71.6002 1095.07 66.406Z" fill="black"/>
</svg>
