<svg width="154" height="123" viewBox="0 0 154 123" fill="none" xmlns="http://www.w3.org/2000/svg">
<path d="M-3.62793 122.464C-3.62793 122.464 8.46974 115.832 18.3813 120.204C28.2929 124.577 38.8602 120.204 36.3094 122.172C33.7587 124.14 26.471 120.569 25.7421 119.184C25.0131 117.8 22.9908 94.6606 23.8107 96.6284C24.6307 98.5962 27.4183 116.16 26.4707 117.945C25.5234 119.731 22.2801 114.557 21.5151 116.306C20.7497 118.055 21.0412 120.059 20.3854 118.492C19.7296 116.925 19.9116 96.993 20.4946 91.782C21.0776 86.5713 22.0613 81.5061 22.8995 81.7249C23.7376 81.9436 28.4017 85.0042 35.4346 86.207C42.4675 87.4094 43.8154 84.4943 44.3985 87.0451C44.9815 89.5959 48.334 119.476 47.5322 120.715C46.7305 121.954 30.4058 119.257 31.4263 118.82C32.4467 118.383 41.6293 118.237 43.0869 115.832C44.5444 113.427 43.0869 87.774 43.5971 86.8631C44.1073 85.9522 48.6258 84.3852 46.6945 85.7699C44.7631 87.1546 44.3624 80.4496 44.2165 73.7814C44.0706 67.1132 43.1233 58.7683 44.2165 55.2339C45.3097 51.6994 41.7021 43.063 41.3742 43.9012C41.0463 44.7393 42.7954 43.731 43.3298 43.3424C43.8643 42.9539 42.674 40.1116 42.7468 41.0346C42.8196 41.9577 42.4796 43.7799 47.2654 40.7189C52.0511 37.6579 61.7925 30.9532 62.181 32.338C62.5696 33.7227 56.4237 26.5807 55.622 26.5564C54.8202 26.5321 45.4189 31.1477 41.4349 32.4111C37.4508 33.6742 36.1999 35.0561 34.6692 35.2655C33.1389 35.475 32.3008 34.3546 30.3512 35.4661C28.4017 36.5775 29.75 37.3246 26.9078 38.5452C24.0655 39.7659 22.6989 39.0737 23.0636 38.6726C23.4279 38.2719 26.3247 35.8849 26.5981 33.9903C26.8714 32.0957 26.3975 30.1094 24.5757 29.1075C22.7539 28.1053 20.6948 23.6781 21.2596 23.6963C21.8244 23.7145 21.4419 25.7004 21.97 28.5427C22.4984 31.385 23.1724 31.3122 22.3161 34.8648C21.4598 38.4175 17.8158 38.0168 18.4719 39.7113C19.1277 41.4057 20.2392 32.9153 18.8726 28.4699C17.5061 24.0242 17.5974 17.9571 20.804 15.4064C24.0105 12.8556 24.1929 14.6774 23.8468 14.8962C23.5007 15.1149 21.4601 13.5296 26.7436 12.4C32.0275 11.2704 38.8231 14.4041 38.477 17.21C38.1309 20.0159 36.5092 18.0299 35.1609 20.1797C33.8126 22.3297 34.3956 24.3703 33.758 24.4795C33.1204 24.5886 32.3004 21.9469 30.2963 23.0037C28.2921 24.0606 30.8247 28.1417 30.9339 27.1944C31.0431 26.247 30.0412 25.9555 29.1485 27.9233C28.2557 29.891 27.5632 30.7292 26.8164 30.1826C26.0693 29.6359 22.7353 26.2834 22.5348 22.9313C22.3343 19.5788 24.4055 27.2614 25.8388 25.5609C27.272 23.8604 25.6928 19.7551 28.1223 20.1679C30.5518 20.5807 32.0578 22.2327 32.9081 21.1883C33.7583 20.1436 34.9729 17.0587 36.795 17.3988C38.6169 17.7388 39.8318 20.97 39.6616 25.7554C39.4914 30.5411 38.3132 32.5514 37.22 32.6605C36.1268 32.7697 34.1044 31.3668 34.6146 31.1666C35.1249 30.9661 36.2727 32.0775 35.6897 33.098C35.1067 34.1184 34.6692 36.013 33.5582 36.596C32.4467 37.1791 31.0074 35.5028 30.0783 36.5596C29.1492 37.6165 28.2015 39.2927 26.4707 40.1854C24.7398 41.0782 20.9867 39.2381 21.4055 38.5274C21.8244 37.817 23.2092 37.6529 22.608 38.2541C22.0067 38.8553 17.8707 40.9626 17.3608 44.8738C16.8506 48.7851 16.6808 63.8952 16.1706 64.4297C15.6603 64.9642 13.8143 64.6484 14.4943 64.1867C15.1744 63.725 22.0249 66.3489 22.8024 65.8387C23.5799 65.3285 24.843 57.0689 24.3085 57.3604C23.774 57.6519 21.7577 64.9884 22.2922 67.8064C22.8267 70.6244 25.0131 74.1953 24.5272 75.8958C24.0412 77.5963 22.5594 81.8719 21.8551 81.4344C21.1508 80.997 16.6323 69.1423 16.6808 67.0775C16.7293 65.0127 18.0898 48.202 18.7213 49.8783C19.3529 51.5545 19.9359 58.9396 21.1262 57.4089C22.3164 55.8786 23.3369 48.7123 22.8267 49.8051C22.3164 50.8984 25.7903 57.6515 26.0575 61.1742C26.3247 64.6966 25.3043 67.612 25.8388 68.5108C26.3733 69.4095 26.9805 68.8265 26.7133 69.6768C26.4461 70.527 24.3085 80.0986 23.9438 80.8999C23.5795 81.7017 22.4378 81.2435 23.2638 80.8514C24.0897 80.4593 39.4065 85.4791 41.8113 83.7665C44.2161 82.0538 36.0176 82.6368 37.0741 76.2601C38.1309 69.8834 43.6695 56.7652 42.3943 56.3278C41.1191 55.8904 35.5074 57.8945 36.8921 54.2145C38.2768 50.5341 41.6293 46.635 40.7912 46.635C39.9531 46.635 35.6897 51.1899 35.9812 47.8738C36.2727 44.5577 42.9777 39.3106 43.0505 37.6343C43.1233 35.9581 40.342 33.5532 42.8924 32.8728C45.4432 32.1928 50.083 35.5206 50.7145 33.8444C51.3461 32.1681 49.3783 31.5609 52.7551 29.0829C56.1318 26.6049 57.1277 25.9249 59.6299 22.1595C62.1322 18.3942 64.1727 13.2927 65.0957 10.6206C66.0188 7.94855 66.0916 1.5108 66.6992 2.09381C67.3065 2.67682 66.7477 8.3371 66.6992 7.55963C66.6507 6.78217 67.0635 0.466086 67.5009 0.903523C67.9384 1.34096 67.6711 9.79463 67.7682 7.70556C67.8652 5.6165 68.5699 0.782211 68.5456 1.53506C68.5214 2.28827 69.0559 9.40607 68.9342 8.74992C68.8129 8.09412 69.9058 5.54335 70.0517 3.98842C70.1976 2.43384 71.2905 3.30836 70.8049 5.3489C70.3193 7.38944 69.2503 14.24 68.4728 14.8473C67.6954 15.4546 67.7928 15.2116 67.477 16.815C67.1612 18.4185 64.0396 27.9775 63.1651 29.2895C62.2906 30.6014 60.4566 30.7228 60.7724 30.2489C61.0882 29.7751 62.145 29.5446 63.2625 26.8115C64.38 24.0784 66.9186 14.665 67.6593 14.6286C68.4004 14.5922 68.7768 18.1145 69.4448 18.7828C70.1127 19.4507 70.4042 18.3821 70.1127 18.4913C69.8212 18.6005 69.7363 18.5155 69.6999 20.301C69.6635 22.0864 70.441 36.8808 71.704 38.217C72.9671 39.5532 81.0386 43.209 85.3202 43.7374C89.6018 44.2658 95.3956 43.3913 93.7375 44.284C92.0795 45.1767 86.213 45.0675 81.257 43.6828C76.301 42.2981 74.927 41.5466 75.0076 40.8951C75.0883 40.244 77.522 35.9213 77.3943 34.8281C77.2669 33.7349 75.8822 31.4574 75.3355 28.8884C74.7889 26.3195 73.5319 17.7381 73.477 15.4242C73.4224 13.1104 73.4406 10.8875 73.9508 9.55736C74.461 8.22721 73.2404 8.28215 72.3109 9.68474C71.3818 11.0877 72.0376 13.2923 72.165 12.2719C72.2924 11.2514 71.6366 5.85877 71.1995 6.55096C70.7621 7.24315 69.833 15.2052 70.3432 15.0596C70.8534 14.9136 72.5115 12.7457 72.7116 14.3674C72.9121 15.989 74.0418 28.3054 74.9527 31.2751C75.8636 34.2447 77.2119 35.2834 77.8314 34.5912C78.4508 33.899 78.287 32.6234 78.0501 33.2064C77.8132 33.7894 77.1756 34.4452 79.945 34.9737C82.7145 35.5021 102.519 37.1965 102.665 35.3926C102.811 33.5886 99.3671 34.7004 97.3266 37.4695C95.286 40.239 94.5025 44.8485 94.9035 49.0755C95.3042 53.3025 94.5756 55.7227 94.3569 59.1037C94.1382 62.4851 92.1886 76.9512 92.5169 73.8356C92.8448 70.7201 111.538 73.8902 111.429 70.9934C111.319 68.0965 110.828 59.7884 115.2 55.525C119.573 51.2616 129.715 55.7559 129.569 56.8976C129.423 58.0394 127.772 56.0959 130.031 55.0027C132.29 53.9094 139.116 54.0068 137.877 54.6141C136.638 55.2214 125.585 38.8239 121.018 36.5889C116.451 34.3539 115.255 35.7568 115.564 36.1943C115.874 36.6317 116.494 36.3584 116.494 35.9574C116.494 35.5563 114.945 33.8258 113.378 34.9919C111.811 36.1579 111.483 41.223 106.218 42.6806C100.952 44.1381 99.9501 41.0953 101.298 39.0184C102.647 36.9414 103.23 36.8137 103.284 34.9555C103.339 33.0969 103.09 30.8441 103.503 30.2974C103.916 29.7508 104.997 29.1436 104.511 29.8479C104.025 30.5522 101.195 31.6333 100.236 29.1436C99.2765 26.6534 99.1851 19.2866 101.281 17.301C103.376 15.315 106.364 15.989 105.89 15.3696C105.416 14.7502 104.268 15.5884 104.961 16.4993C105.653 17.4102 108.605 19.3233 108.714 21.2365C108.823 23.1497 107.84 24.8623 108.696 24.0788C109.552 23.2952 111.138 21.8377 111.447 23.8964C111.757 25.9552 109.024 26.2103 109.589 25.6637C110.154 25.1171 112.322 28.6701 112.139 29.2531C111.957 29.8361 111.866 28.4696 114.053 25.7732C116.239 23.0769 116.093 19.87 115.547 20.0341C115 20.1982 115.765 22.8036 115.036 26.3744C114.307 29.9456 114.344 31.239 115.547 32.551C116.749 33.863 120.448 33.134 119.919 33.808C119.391 34.482 117.095 34.0631 117.678 28.6155C118.261 23.1679 118.79 18.522 117.441 16.4629C116.093 14.4041 113.925 15.2423 113.961 15.8981C113.998 16.5539 115.273 17.5743 115.182 16.8454C115.091 16.1164 112.923 12.0353 106.436 13.5111C99.9501 14.9868 100.26 17.7927 100.606 17.246C100.952 16.6994 103.843 13.8268 106.722 14.4584C109.601 15.0899 107.56 16.5596 108.434 17.7987C109.309 19.0375 112.649 21.2361 112.649 23.3495C112.649 25.4628 111.532 28.0867 111.641 30.1273C111.75 32.1678 112.795 34.0628 112.151 35.6416C111.508 37.2208 116.548 37.3967 115.546 40.0021C114.544 42.6074 112.085 43.9376 113.852 43.6097C115.619 43.2818 119.518 43.063 119.773 44.5934C120.028 46.1237 115.765 54.9238 115.619 53.6122C115.473 52.3002 117.332 46.0327 118.935 46.7616C120.539 47.4906 126.223 54.268 127.844 54.8328C129.466 55.3976 135.187 53.4663 137.1 55.7255C139.013 57.9848 133.602 65.874 131.306 68.5703C129.01 71.2667 127.674 72.6393 128.16 73.7568C128.646 74.8743 134.865 69.9672 133.602 68.3395C132.339 66.7118 128.549 71.789 128.136 74.5585C127.723 77.328 127.698 83.1581 126.411 83.0853C125.123 83.0125 125.002 79.806 125.391 80.389C125.779 80.972 125.123 84.3002 124.103 83.9113C123.083 83.5228 123.374 79.7817 123.52 81.1904C123.666 82.599 122.184 85.3931 121.455 84.5671C120.727 83.7411 121.601 79.1256 121.625 81.1176C121.65 83.1096 120.216 86.0247 119.633 84.8829C119.05 83.7411 119.561 76.8663 119.561 78.3724C119.561 79.8784 118.589 81.4819 118.589 80.5099C118.589 79.538 119.002 75.2871 121.674 71.3273C124.346 67.3676 128.646 57.6019 128.646 58.865C128.646 60.1281 126.363 65.6428 123.277 69.5783C120.192 73.5138 120.338 75.8216 115.844 74.0726C111.35 72.3235 109.989 64.3555 111.01 59.594C112.03 54.8325 115.358 53.6664 114.435 54.6384C113.512 55.6099 110.281 60.2259 109.953 64.0154C109.625 67.805 111.41 69.9915 109.807 70.6837C108.203 71.3759 101.535 67.6958 100.478 68.7523C99.4213 69.8092 100.004 71.3031 98.2189 71.1207C96.4335 70.9384 95.7773 68.8251 94.83 70.4649C93.8827 72.1048 90.8217 91.873 90.2751 97.8854C89.7285 103.898 90.603 123.411 88.9268 119.476C87.2505 115.54 104.085 119.84 105.616 115.322C107.146 110.803 106.49 92.2191 104.45 86.0243C102.409 79.8295 105.179 97.3206 104.304 101.912C103.429 106.503 95.5583 110.803 98.838 111.022C102.117 111.24 108.385 105.993 109.187 111.022C109.988 116.05 107.802 117.872 107.656 115.759C107.51 113.646 122.232 116.342 124.929 111.386C127.625 106.431 122.305 84.2028 122.305 87.0451C122.305 89.8874 124.2 105.993 123.252 109.492C122.305 112.99 123.106 115.687 128.645 114.375C134.184 113.063 157.87 114.666 157.87 114.666" 

        className="stroke-primary"

stroke-width="0.49952" stroke-miterlimit="10"/>
</svg>
