<svg width="1568" height="1384" viewBox="0 0 1568 1384" fill="none" xmlns="http://www.w3.org/2000/svg">
<path d="M0.765625 1328.06C155.61 1253.3 663.528 1370.1 670.202 1255.97C676.877 1141.84 702.906 975.985 690.893 974.983C678.879 973.982 581.767 984.995 598.787 998.01C615.806 1011.02 649.79 1035.05 642.559 1087.61C641.002 1096.46 593.781 1089.78 576.094 1093.45C558.407 1097.12 518.194 1121.99 499.839 1120.32C481.485 1118.65 457.624 1089.11 456.456 1081.27C455.289 1073.43 460.961 1048.9 457.291 1034.05C453.62 1019.2 456.289 998.844 473.142 1014.7C489.995 1030.55 482.208 1061.75 488.438 1070.2C494.667 1078.66 507.571 1121.82 480.873 1118.7C454.176 1115.59 412.35 1084.44 413.462 1072.87C414.575 1061.3 407.011 1007.69 414.575 1000.35C422.139 993.004 435.488 1000.79 437.49 1015.03C439.492 1029.27 438.662 1047.27 447.502 1061.97C456.341 1076.67 421.472 1081.55 405.008 1073.76C388.545 1065.98 380.091 1055.08 378.311 1036.16C376.531 1017.25 370.079 993.449 381.203 991.224C392.327 988.999 404.564 991.224 406.343 1012.58C408.123 1033.94 413.24 1072.87 408.345 1069.54C403.451 1066.2 366.297 1064.86 355.173 1050.4C344.049 1035.94 329.588 1003.68 345.829 1003.02C362.07 1002.35 380.758 1024.15 371.859 1024.6C362.978 1025.04 310.674 996.793 147.628 995.68C147.09 995.677 146.68 995.195 146.77 994.665C147.971 987.618 155.168 946.034 157.612 946.951C160.282 947.952 550.731 990.334 551.732 995.34C552.668 1000.02 526.477 1047.87 523.064 1054.08C522.854 1054.46 522.399 1054.63 521.992 1054.47C517.227 1052.64 489.936 1042.32 489.327 1045.06C488.66 1048.07 526.036 1061.75 529.04 1060.08C532.043 1058.41 566.75 971.646 564.08 968.976C561.41 966.306 158.28 921.589 157.612 922.923C156.945 924.258 153.608 942.279 159.615 941.945C165.622 941.611 156.611 928.93 162.285 897.561C167.958 866.191 187.981 732.371 198.993 732.371C210.006 732.371 451.951 800.783 451.951 795.109C451.951 789.436 436.934 769.413 458.625 776.087C480.317 782.762 491.663 778.089 510.685 774.753C529.707 771.415 552.066 772.417 573.09 762.405C594.114 752.394 668.534 769.079 703.908 779.091C739.282 789.103 802.688 802.452 804.357 812.463C806.025 822.474 813.033 935.604 803.689 932.601C794.345 929.598 719.592 898.562 694.897 901.899C670.202 905.236 574.759 925.593 572.423 932.601C570.087 939.609 563.079 967.975 566.75 966.974C570.421 965.972 580.766 933.268 570.087 929.264C559.408 925.259 556.738 912.578 538.384 909.241C520.03 905.903 489.328 896.893 489.328 888.217C489.328 879.54 490.329 881.876 499.673 882.877C509.017 883.879 542.723 883.878 539.385 887.883C536.048 891.888 479.316 886.882 468.637 878.539C457.958 870.196 436.267 838.826 451.951 838.493C467.636 838.159 531.376 845.167 522.366 850.84C513.355 856.514 443.274 842.497 433.597 825.811C423.919 809.125 426.255 799.114 437.935 800.783C449.615 802.451 547.728 791.105 574.759 777.089C601.79 763.073 605.795 760.737 635.162 770.415C664.529 780.092 708.246 798.78 705.91 769.413C703.574 740.046 705.243 720.357 725.266 694.327C745.289 668.297 752.631 636.928 756.301 605.892C759.972 574.856 783.332 517.457 782.665 496.433C781.997 475.409 781.664 443.705 793.677 416.007C805.691 388.308 860.755 298.538 925.829 304.545C932.17 306.547 884.115 245.811 857.751 242.808C831.387 239.804 794.679 263.498 749.293 265.834C703.907 268.17 697.9 265.167 700.237 250.483C702.573 235.8 642.503 161.381 581.767 156.041C521.03 150.702 544.39 225.121 525.369 233.464C506.347 241.807 492.331 242.474 495.334 250.483C498.338 258.492 521.031 311.554 538.718 317.56C556.404 323.567 499.005 336.916 467.636 261.83C436.267 186.744 472.642 124.338 549.731 64.6027C626.819 4.86745 704.909 -12.8198 753.298 14.2113C801.687 41.2423 871.768 106.985 888.453 173.394C905.139 239.804 888.453 261.496 874.77 264.833C861.088 268.17 754.299 271.841 725.599 215.109C696.899 158.378 589.776 105.65 546.393 142.359C503.009 179.067 496.669 251.818 516.025 275.178C535.38 298.538 560.075 317.226 556.738 339.586C553.401 361.945 542.054 376.628 559.408 380.967C576.761 385.305 587.44 374.292 592.112 386.306C596.784 398.32 600.121 413.671 633.159 425.351C666.197 437.031 663.194 462.06 701.571 452.382C739.949 442.704 764.978 408.999 765.311 390.31C765.645 371.622 775.657 309.217 764.644 321.898C753.631 334.58 750.628 401.323 768.648 411.668C786.669 422.013 796.013 430.69 793.677 446.041C791.341 461.392 782.331 493.095 792.342 492.094C802.354 491.093 836.059 420.011 862.423 397.652C888.787 375.293 972.216 356.271 968.545 344.591C964.874 332.911 934.506 298.872 933.171 309.217C931.836 319.563 957.866 347.595 978.223 353.602C998.579 359.609 1102.03 382.969 1149.42 483.084C1196.81 583.199 1267.56 832.819 1270.23 894.223C1272.9 955.627 1266.89 1037.05 1188.13 1044.4C1109.37 1051.74 900.467 1034.38 893.125 1009.02C885.783 983.659 952.527 846.168 926.497 832.819C900.467 819.47 882.446 490.426 900.467 507.779C918.487 525.132 909.811 805.455 939.178 826.813C968.545 848.171 1091.35 860.351 1144.91 879.373C1198.48 898.395 1247.53 961.468 1218 955.961C1188.46 950.455 1169.94 888.884 1137.41 885.881C1104.87 882.877 1181.46 904.402 1153.42 917.917C1125.39 931.433 1167.34 892.325 1079.84 868.861C992.342 845.397 815.536 803.786 812.532 816.801C809.529 829.816 797.015 1020.54 816.036 1035.55C835.058 1050.57 868.597 1058.58 874.604 1044.56C880.611 1030.55 864.592 984.494 914.149 1003.02C963.707 1021.54 1018.77 1030.55 1092.35 1030.55C1165.94 1030.55 1206.99 1016.53 1211.49 1056.08C1216 1095.62 1207.99 1130.16 1183.46 1135.17C1158.93 1140.17 1146.42 1155.19 1146.92 1140.67C1147.42 1126.16 1163.94 1034.05 1170.44 1053.57C1176.95 1073.1 1116.38 1215.26 1122.89 1250.3C1129.4 1285.34 1111.38 1281.34 1107.87 1267.82C1104.37 1254.31 1120.39 1142.18 1152.42 1159.7C1184.46 1177.22 1567.23 1382.12 1567.23 1382.12" stroke="black" stroke-width="3.16402" stroke-miterlimit="10"/>
</svg>
