<svg width="154" height="94" viewBox="0 0 154 94" fill="none" xmlns="http://www.w3.org/2000/svg">
<path d="M-28.04 93.0166C-19.0098 73.0036 2.65934 64.8718 13.7087 65.2658C24.7581 65.6604 30.6771 72.369 36.9912 70.7903C43.3052 69.212 45.0147 63.1608 37.5174 63.0296C30.0197 62.8979 30.1513 76.4469 40.8057 76.0518C51.4605 75.6567 49.6788 63.025 35.9987 46.3195C22.3185 29.6135 16.04 15.0812 17.3554 8.37253C18.6708 1.66389 23.5378 -3.46598 25.6423 6.79427C27.7468 17.0545 25.2477 25.6043 19.1971 36.2591C13.1464 46.9134 15.7771 65.8556 32.746 63.0932C49.7149 60.3307 53.7923 40.731 43.1375 33.3649C32.4826 25.9989 19.5921 46.7822 26.8265 54.0166C34.0609 61.2515 45.8994 47.5714 39.8487 42.4415C39.8487 42.4415 33.0318 37.8308 30.0471 45.4079C27.0619 52.9849 39.9204 59.8731 52.0889 57.5769C64.2584 55.2812 65.1767 43.1116 70.9167 40.3563C76.6568 37.6014 80.2546 41.3076 80.2546 41.3076C80.2546 41.3076 72.6242 40.0192 69.7513 45.2711C66.8775 50.523 67.0758 56.5676 73.9131 55.1805C80.7504 53.7934 83.3268 47.6497 82.9307 43.9837C82.5346 40.3171 70.544 22.9761 68.9587 18.4177C67.3733 13.8598 64.5986 9.99503 65.193 12.0757C65.7874 14.1563 68.7604 14.8503 76.3903 17.2284C84.0208 19.6065 85.3087 25.1558 85.5065 25.4533C85.7048 25.7502 82.1375 22.0842 77.183 21.5885C72.2286 21.0927 71.535 20.6966 70.6432 19.2104C69.7513 17.7236 69.0573 16.4357 69.6522 17.3276C70.2466 18.2194 83.5256 41.7042 84.9127 43.9837C86.2997 46.2626 97.794 53.3973 104.235 47.4519C110.676 41.5064 112.262 36.7498 114.937 35.3627C114.937 35.3627 117.535 34.1541 120.441 34.9844C123.347 35.8147 123.555 36.3333 123.555 36.3333C123.555 36.3333 117.95 35.8147 115.252 39.7583C112.554 43.7025 114.111 50.0328 120.545 47.5419C126.98 45.0514 125.838 38.2019 124.385 34.8807C122.932 31.5599 115.979 13.6056 114.837 14.1248C113.696 14.6439 132.169 3.22792 131.027 3.33164C129.886 3.43486 139.122 23.5684 139.122 23.5684C139.122 23.5684 131.753 25.5407 132.583 32.1828C133.414 38.8243 139.433 36.3333 140.574 32.7014C141.716 29.0689 139.329 24.7099 139.329 24.7099L132.064 9.03913C132.064 9.03913 118.365 16.7189 118.365 17.3413C118.365 17.9636 125.318 35.0876 125.318 35.0876C125.318 35.0876 128.535 39.4467 136.111 40.2765C143.687 41.1073 150.952 39.4461 154.065 36.6445C154.065 36.6445 156.895 32.5412 161.781 31.9845C166.669 31.4272 167.844 35.4486 166.731 38.418C165.617 41.388 158.317 43.3054 156.028 42.7486C153.739 42.1918 154.853 37.6142 154.605 37.5521C154.357 37.4901 153.43 38.1089 153.739 39.8412C154.049 41.5735 161.279 63.7359 160.354 64.0664C159.429 64.3964 179.578 53.5626 179.578 53.5626C179.578 53.5626 172.509 29.4503 172.509 28.7898C172.509 28.1293 173.896 18.286 181.559 20.3336C189.223 22.3817 179.71 32.3572 176.01 31.6962C172.311 31.0357 172.773 27.931 173.302 29.1859C173.302 29.1859 174.537 27.48 177.014 33.4554C179.493 39.4309 191.674 40.071 195.755 32.6373C199.836 25.2041 178.993 31.7628 190.217 35.261C203.88 41.0778 221.296 26.3873 244.695 34.8644" stroke="black" stroke-linecap="round" stroke-linejoin="round"/>
</svg>
