<svg width="128" height="86" viewBox="0 0 128 86" fill="none" xmlns="http://www.w3.org/2000/svg">
<path d="M59.3886 86C59.4935 86 59.5858 85.9234 59.6029 85.8168C59.6215 85.6985 59.5405 85.5867 59.4222 85.568C59.3448 85.5559 51.6736 84.3041 50.859 80.8508C50.4422 79.0844 51.8928 77.0019 55.1702 74.6601C55.8179 74.3128 57.3539 73.3974 57.1214 72.7073C56.9752 72.2745 56.2999 71.9155 52.4031 72.5298C46.3008 73.495 35.9358 72.0512 35.692 70.5936C35.6648 70.4295 35.8001 69.5623 41.1799 68.6124C48.2285 67.368 55.0025 67.2124 59.485 67.1086C63.9254 67.0065 65.7356 66.9372 65.9374 66.2414C66.0548 65.8366 65.5813 65.459 65.1564 65.1753C61.3426 62.6317 38.1625 62.0964 33.7565 62.0964C32.5555 62.0964 31.3318 61.5927 31.3294 61.2304C31.3277 60.9978 31.9665 58.9477 54.6124 58.6195C66.8775 58.4416 75.1187 57.1708 76.1196 55.3039C76.276 55.0122 76.2626 54.7094 76.0811 54.4266C75.0547 52.832 68.7583 52.0357 61.1122 52.5354C43.5661 53.6806 21.7815 51.1896 18.728 47.6905C18.4485 47.3699 18.3432 47.0616 18.4072 46.7475C18.4907 46.3358 18.8771 46.0282 19.3474 45.9986C22.1043 45.8252 37.3179 45.0881 66.1573 47.6224C67.6593 47.7533 68.3333 46.478 68.4743 45.2413C68.67 43.5166 68.4695 41.7405 68.2762 40.0231C68.2219 39.5434 68.1681 39.0664 68.1235 38.5943C67.9428 36.6869 67.4171 34.651 66.562 32.543C65.0373 28.7866 62.5502 25.4418 59.3699 22.8706C56.1545 20.2715 52.3242 18.5424 48.2917 17.8705C47.0404 17.6618 45.7612 17.554 44.4881 17.5496H44.3994C38.0325 17.5496 32.0467 20.0227 27.5351 24.5203C23.0027 29.0382 20.5063 35.0514 20.5063 41.4524C20.5063 41.6984 20.4986 42.0047 20.4909 42.333L20.4767 42.9663C20.4707 43.3006 20.3301 43.6082 20.0806 43.8319C19.8298 44.056 19.5098 44.1634 19.1724 44.1301L0.445603 42.3629L15.9983 41.2052C17.6121 41.0873 18.916 39.8882 19.1692 38.29C19.4219 36.6914 18.5522 35.1478 17.0539 34.5372L9.62976 31.2832C9.43168 31.196 9.47867 31.0109 9.49001 30.9748C9.50135 30.9383 9.56657 30.758 9.78207 30.8026L17.753 32.4146C19.3142 32.7999 20.9255 32.0628 21.6599 30.6202C22.3947 29.178 22.0443 27.4416 20.8077 26.3977L9.37862 16.7456L9.52728 16.5142L9.41264 16.699L22.1205 24.5904C23.4965 25.4442 25.2549 25.24 26.398 24.096C27.5424 22.9513 27.7453 21.1914 26.8918 19.816L23.2543 13.4126C23.1526 13.2335 23.2924 13.1172 23.3211 13.0957C23.3507 13.0742 23.503 12.9757 23.644 13.1249L28.7061 18.512C29.7419 19.7402 31.478 20.0907 32.9193 19.3557C34.3609 18.6214 35.0977 17.0102 34.7109 15.4383L31.0175 0.426616C32.5458 4.21834 35.346 11.0995 36.8197 14.7361C37.4301 16.2443 38.9844 17.1176 40.5994 16.8619L40.6638 16.8518C42.2302 16.6033 43.4033 15.3257 43.5167 13.7432L44.5253 5.69175C44.5403 5.57505 44.6266 5.55722 44.6704 5.5637C44.7088 5.5637 44.7947 5.57626 44.8117 5.68608C45.1038 7.58944 45.4991 10.5217 45.7239 13.6788C45.8402 15.3001 47.0477 16.6106 48.6611 16.8667L48.7251 16.8769C50.2863 17.1249 51.7976 16.2727 52.3942 14.8053L58.1799 0.563584C57.1996 4.55873 55.4513 11.6502 54.5164 15.416C54.1239 16.9956 54.868 18.6181 56.3258 19.3613L56.385 19.3913C57.7999 20.1114 59.5012 19.7674 60.5236 18.5525L66.3667 11.5858C66.4263 11.5157 66.4931 11.5449 66.5186 11.5615C66.5502 11.5809 66.5976 11.6255 66.5624 11.7045C65.6206 13.8202 64.1239 16.9458 62.3419 19.8168C61.4889 21.1909 61.6959 22.9541 62.8459 24.1041L62.8904 24.1491C64.004 25.2635 65.715 25.4608 67.0501 24.6301L80.0792 16.5385C76.9354 19.2106 71.3831 23.8975 68.4302 26.3856C67.1898 27.4315 66.8402 29.1772 67.5807 30.6312L67.6095 30.6887C68.3277 32.0969 69.8989 32.8162 71.4346 32.4381L80.98 30.1599C81.0825 30.1352 81.123 30.2101 81.1352 30.2434C81.1469 30.2762 81.1647 30.3576 81.0716 30.4046C78.7084 31.5992 75.2479 33.2854 72.1811 34.5347C70.6824 35.145 69.8135 36.6942 70.0674 38.3017L70.0776 38.3658C70.3243 39.9222 71.5929 41.0885 73.1634 41.2028L87.3068 42.232C87.3623 42.2357 87.3907 42.2665 87.3907 42.322C87.3907 42.3775 87.3623 42.4083 87.3068 42.412L78.3997 43.0616C77.6155 43.1187 76.8143 43.1422 76.0394 43.1649C75.1819 43.1896 74.2948 43.2151 73.4222 43.2873C73.3177 43.2958 73.1934 43.3039 73.0544 43.3132C71.7606 43.3971 69.3517 43.5547 69.0536 44.8989C68.9956 45.1614 69.0475 45.407 69.2091 45.6279C69.8029 46.4395 71.7781 46.7118 73.4324 46.8585C73.5462 46.8687 73.6373 46.8768 73.7001 46.8837C76.2492 47.1669 81.4191 46.8995 87.9639 46.5611C101.401 45.8653 121.707 44.8162 137.546 47.7505C160.921 52.0824 162.916 46.9566 162.989 46.7366C163.027 46.6227 162.965 46.4999 162.852 46.4614C162.737 46.4237 162.615 46.4853 162.577 46.5988C162.56 46.6454 160.468 51.5539 137.625 47.3233C121.734 44.3789 101.398 45.4313 87.9412 46.1271C81.4159 46.4647 76.261 46.7305 73.7479 46.4517C73.6827 46.4444 73.5883 46.4359 73.4704 46.4258C72.6401 46.352 70.1132 46.1279 69.5591 45.3709C69.4724 45.2522 69.4461 45.1319 69.4773 44.9929C69.7045 43.9672 71.9859 43.8181 73.082 43.7464C73.2242 43.7375 73.3505 43.729 73.4571 43.72C74.3183 43.6491 75.1993 43.6236 76.0515 43.5989C76.8313 43.5762 77.6374 43.5531 78.4309 43.4951L87.338 42.8456C87.62 42.8249 87.8249 42.6049 87.8249 42.322C87.8249 42.0392 87.62 41.8191 87.338 41.7985L73.1946 40.7692C71.8263 40.6699 70.7208 39.654 70.5065 38.2981L70.4964 38.2341C70.2736 36.8267 71.0335 35.4712 72.3443 34.9371C75.4249 33.6825 78.8968 31.9907 81.2672 30.7928C81.5309 30.6591 81.6443 30.3718 81.5427 30.0942C81.441 29.8146 81.1684 29.6671 80.8788 29.7372L71.3313 32.0158C69.9941 32.3465 68.6222 31.7196 67.9963 30.4918L67.9676 30.4342C67.319 29.161 67.6241 27.6329 68.7096 26.7183C71.663 24.2298 77.2149 19.5425 80.3688 16.8793C80.5499 16.7265 80.5802 16.4769 80.4413 16.2852C80.3007 16.0928 80.0528 16.0437 79.8495 16.1693L66.8204 24.261C65.6558 24.9839 64.1668 24.8125 63.1979 23.8428L63.1533 23.7978C62.1459 22.7904 61.964 21.2477 62.7106 20.0458C64.5054 17.1537 66.0115 14.0091 66.9589 11.8808C67.0732 11.6243 66.9865 11.3415 66.7487 11.1927C66.5089 11.0432 66.2152 11.0894 66.0338 11.3062L60.1906 18.2725C59.2987 19.3314 57.8157 19.632 56.5814 19.0035L56.5227 18.9735C55.2463 18.3227 54.5946 16.9028 54.9377 15.5202C55.8726 11.7544 57.6204 4.66288 58.6048 0.665701C58.6607 0.438368 58.54 0.220355 58.3172 0.148224C58.0924 0.0740672 57.8659 0.181453 57.7772 0.399466L51.9912 14.6404C51.4715 15.9201 50.1542 16.6621 48.7924 16.4461L48.7283 16.436C47.3155 16.2123 46.2582 15.0651 46.157 13.6468C45.9309 10.4751 45.5336 7.53068 45.2407 5.61881C45.1957 5.32583 44.975 5.1374 44.6614 5.12808C44.3641 5.13213 44.1308 5.34164 44.0939 5.63664L43.0841 13.6999C42.984 15.091 41.9612 16.2058 40.5953 16.4218L40.5309 16.4319C39.1168 16.6576 37.7558 15.8918 37.2219 14.5727C35.7479 10.9354 32.9476 4.05422 31.4055 0.266551C31.3184 0.0538057 31.0981 -0.0479067 30.8785 0.0217926C30.6598 0.0927077 30.5407 0.306668 30.5954 0.530355L34.2892 15.5421C34.6274 16.917 33.983 18.3264 32.7224 18.9687C31.461 19.6118 29.9428 19.305 29.0302 18.223L23.9603 12.827C23.7169 12.5685 23.3483 12.5353 23.0631 12.746C22.7779 12.9563 22.7014 13.319 22.8764 13.6273L26.5179 20.0381C27.2685 21.2481 27.0911 22.7875 26.0902 23.7885C25.0897 24.7894 23.5512 24.9681 22.3486 24.2208L9.6407 16.329C9.42844 16.1981 9.16757 16.2484 9.02134 16.4506C8.87511 16.6528 8.90671 16.9162 9.0979 17.0771L20.527 26.7292C21.6085 27.6426 21.9151 29.161 21.2723 30.4229C20.6298 31.6848 19.2226 32.3283 17.847 31.9903L9.86713 30.3763C9.51026 30.3037 9.18459 30.4962 9.07522 30.8435C8.96585 31.1908 9.1218 31.5352 9.45517 31.6811L16.8842 34.9371C18.1998 35.4736 18.9606 36.8231 18.739 38.2215C18.5178 39.6195 17.3775 40.6679 15.9663 40.7708L0.413602 41.9054C0.176636 41.9229 0.00245619 42.108 2.5771e-05 42.3455C-0.00240465 42.5838 0.16732 42.7726 0.403881 42.7953L19.1311 44.5625C19.5799 44.6038 20.0328 44.4563 20.3694 44.1553C20.7056 43.8546 20.9029 43.4238 20.9106 42.9736L20.9247 42.3435C20.9324 42.0112 20.9401 41.7012 20.9401 41.4524C20.9401 35.1681 23.3912 29.2639 27.8409 24.8279C32.2703 20.4125 38.1479 17.984 44.399 17.984H44.4856C45.7349 17.988 46.9914 18.0942 48.2196 18.2988C52.1779 18.9585 55.939 20.656 59.0957 23.2082C62.2192 25.7336 64.6614 29.0179 66.1585 32.7067C66.9978 34.7754 67.5131 36.7696 67.6897 38.6348C67.735 39.1102 67.7889 39.59 67.8432 40.0714C68.034 41.7652 68.2313 43.5162 68.0413 45.1918C67.9846 45.6931 67.6812 47.3177 66.1946 47.1892C37.3248 44.6525 22.082 45.3908 19.3194 45.5647C18.6539 45.6064 18.103 46.057 17.9807 46.6604C17.8895 47.1098 18.0309 47.5527 18.3999 47.9758C21.86 51.9405 44.7947 54.0347 61.1393 52.9686C69.2411 52.439 74.9121 53.4139 75.7145 54.6612C75.8113 54.8112 75.8178 54.9457 75.736 55.0981C75.0433 56.3903 69.0937 57.9744 54.6055 58.1843C43.7796 58.3415 30.8781 58.9976 30.8939 61.2332C30.9004 62.0968 32.7317 62.5304 33.7553 62.5304C38.1394 62.5304 61.1907 63.0527 64.9141 65.5359C65.5448 65.9566 65.5193 66.1175 65.5185 66.1191C65.3978 66.5369 62.3857 66.6062 59.4736 66.6734C54.9778 66.7772 48.1839 66.9332 41.1025 68.1833C35.6563 69.1445 35.1609 70.0591 35.2618 70.6641C35.5984 72.6757 46.6815 73.8711 52.4696 72.9581C56.4146 72.3345 56.69 72.7908 56.7082 72.8451C56.7803 73.059 55.9208 73.7613 54.9393 74.2901C51.4812 76.7588 49.9739 78.9944 50.4349 80.9488C51.3163 84.685 59.0252 85.9441 59.3525 85.9959C59.3639 85.9976 59.3756 85.9984 59.387 85.9984L59.3886 86Z" 
        className="fill-primary"
/>
</svg>
