<svg width="3502" height="1061" viewBox="0 0 3502 1061" fill="none" xmlns="http://www.w3.org/2000/svg">
<path d="M2797.46 1060.94C2741.02 1060.94 2670.77 1060.26 2583.27 1058.61C2358.02 1054.37 2120.72 1045.58 2073.65 1043.48C2050.74 1042.45 2050.74 1042.45 2050.79 1040.19C2050.86 1037.74 2050.86 1037.74 2098.18 1037.85C2126.98 1037.92 2168.23 1038.2 2215.99 1038.53C2303.16 1039.12 2411.63 1039.85 2517.69 1039.85H3020.11C2988.99 1018.9 2938.32 1005.63 2869.36 1000.39C2700.12 987.525 2044.42 1009.31 1818.3 1022.57C1788.38 1024.32 1788.1 1020.51 1787.96 1018.45C1787.83 1016.67 1787.56 1012.95 1815.7 1004.85C1834.57 999.414 1861.54 993.36 1893.71 987.344C1973.54 972.413 2078.21 959.005 2188.45 949.59C2553.07 918.449 2939.65 944.094 2983.95 947.231C2973.41 934.826 2930.01 889.298 2844.67 867.161C2592.8 801.818 2066.98 883.15 1790.92 958.691C1747.24 970.644 1744.05 967.365 1742.85 966.132C1742.13 965.387 1741.9 964.368 1742.21 963.337C1744.82 954.769 1800.56 933.539 1847.5 917.963C1902.83 899.602 1996.27 871.898 2127.18 844.187C2323.72 802.586 2515.23 797.255 2641.25 800.1C2763.14 802.856 2848.97 813.587 2866.66 815.957C2860.63 805.613 2839 782.529 2798.41 761.635C2758.19 740.932 2687.64 716.684 2579.86 718.75C2246.98 725.126 2043.71 780.711 1763.34 887.882C1743.25 895.566 1740.64 893.307 1739.53 892.343C1738.63 891.567 1738.28 890.396 1738.57 889.13C1741.93 874.159 1875.18 794.708 2099.21 732.326C2273.71 683.732 2444.93 673.474 2557.82 673.424C2558.09 673.424 2558.38 673.424 2558.65 673.424C2664.2 673.424 2739.68 682.078 2758.54 684.476C2719.72 639.647 2636.5 622.141 2482.28 626.068C2217.31 632.808 2009.72 688.83 1928.84 720.87C1905.49 730.117 1900.79 734.211 1900.96 736.019C1901.27 739.415 1920.37 743.183 1928.52 744.791C1936.78 746.42 1939.71 747.886 1939.72 750.396C1939.75 754.508 1931.13 756.507 1901.22 762.8C1879.35 767.4 1849.4 773.703 1818.18 782.923C1796.22 789.405 1776.52 797.365 1760.68 803.761C1737.6 813.084 1723.67 818.716 1717.92 814.361C1715.91 812.846 1715.09 810.282 1715.48 806.748C1715.66 805.082 1715.92 803.37 1716.18 801.716C1716.62 798.833 1717.36 794.01 1716.62 793.2C1716.5 793.17 1714.8 792.879 1707.67 798.798C1699.29 805.752 1689.83 807.992 1683.58 804.502C1679.65 802.307 1675.35 796.962 1677.18 783.963C1677.24 783.578 1682.84 745.341 1690.55 745.123C1690.58 745.121 1690.61 745.121 1690.64 745.121C1693.43 745.121 1694.19 748.898 1694.43 750.148C1697.23 764.192 1701.11 766.642 1702.64 767.043C1704.81 767.613 1707.14 765.549 1708.71 763.72C1714.38 757.096 1719.45 759.699 1725.33 762.71C1727.07 763.602 1729.05 764.612 1731.22 765.492C1737.13 767.886 1748.25 765.668 1768.42 761.635C1782.83 758.755 1802.56 754.813 1828.52 751.012C1858.8 746.578 1866.99 743.41 1869.18 742.145C1867.11 741.362 1860.22 739.755 1838.23 739.871C1819.6 739.908 1810.67 738.221 1807.28 733.954C1805.76 732.038 1805.37 729.615 1806.1 726.543C1807.4 721.047 1806.37 719.852 1806.36 719.841C1806.14 719.834 1804.7 720.231 1802.33 723.162C1796.82 730.014 1792.6 734.1 1788.63 733.299C1784.75 732.512 1782.57 727.459 1780.31 719.559L1779.97 718.337C1778.17 712.046 1775.56 702.9 1773.83 700.075C1773.44 701.144 1772.87 703.473 1772.36 708.492C1771.07 721.215 1767.79 724.128 1764.27 726.2C1762.68 727.13 1762.03 727.515 1762.27 731.06C1762.77 738.351 1760.86 743.528 1757.03 745.263C1752.74 747.2 1746.96 744.552 1739.85 737.384C1737.4 734.906 1735.4 735.666 1732.35 737.108C1730.4 738.031 1728.38 738.984 1726.37 738.026C1724.83 737.288 1723.79 735.611 1723.09 732.746C1721.88 727.703 1718.25 711.107 1722.72 709.264C1725.27 708.219 1727.32 711.579 1728.3 713.198C1732.93 720.81 1740.24 725.952 1742.36 725.204C1742.81 725.038 1743.13 723.801 1742.76 721.474C1739.82 702.803 1738.48 675.125 1743.78 673.917C1746.22 673.36 1747.16 676.535 1747.48 677.577C1752.85 695.482 1756.05 702.798 1757.66 705.748C1757.68 704.414 1757.58 702.354 1757.23 699.202C1756.43 691.961 1754.3 648.292 1759.35 596.646C1755.42 603.293 1752.27 606.395 1749.94 605.889C1746.97 605.253 1746.71 600.861 1746.84 596.649C1746.95 593.304 1747.12 589.587 1747.3 585.699C1748.02 569.691 1749.11 545.502 1745.36 541.95C1745.17 541.766 1745.07 541.775 1744.99 541.784C1740.48 542.232 1736.05 562.332 1731.82 601.527C1726.66 649.374 1724.98 649.277 1722.64 649.14C1720.29 648.997 1718.59 648.894 1719.26 599.042C1719.89 551.418 1715.61 518.129 1711.91 498.587C1711.34 495.582 1710.78 493.895 1710.38 492.968C1709.63 495.257 1708.83 500.921 1709.32 510.912C1709.47 514.006 1708.01 516.075 1705.31 516.59C1698.54 517.881 1682.76 508.02 1671.59 496.465C1668.1 501.044 1663.42 504.124 1658.32 504.683C1649.3 505.661 1641.82 498.617 1638.26 485.826C1634.99 474.093 1629.21 457.298 1626.03 450.511C1624.44 460.929 1615.86 475.427 1602.12 478.355C1593.62 480.173 1590.22 475.649 1586.63 470.869C1583.48 466.688 1579.92 461.948 1571.99 459.216C1546.28 450.369 1518.57 444.016 1494.28 439.707C1487.81 443.044 1474.99 443.076 1454.89 439.88C1424.55 435.057 1423.97 433.228 1423.55 431.892C1423.31 431.146 1423.51 430.336 1424.09 429.779C1426.83 427.097 1456.9 429.326 1493.59 435.884C1494.42 435.309 1494.92 434.706 1495.2 434.147C1498 428.743 1487.45 417.923 1482.94 413.303C1479.71 409.988 1478.73 408.987 1479.9 407.51C1481.14 405.926 1482.52 406.745 1488.31 410.174C1516.23 426.681 1528.18 431.096 1552.24 436.791C1556.17 437.72 1560.46 438.859 1564.61 439.961C1577.88 443.483 1596.06 448.306 1599.27 444.277C1600.23 443.072 1599.73 440.467 1597.87 436.94C1590.71 423.354 1568.55 397.317 1550.16 379.088C1542.57 381.351 1534.76 382.834 1523.41 379.632C1512.59 376.581 1509.87 371.201 1509.22 368.265C1508.4 364.632 1509.75 360.873 1512.83 358.208C1516.65 354.888 1522.23 354.037 1527.38 355.988C1532.41 357.891 1541.26 365.268 1551.19 374.984C1551.78 374.798 1552.37 374.609 1552.97 374.418C1560.14 372.144 1568.27 369.561 1579.88 370.269C1605.61 371.829 1641.91 393.804 1658.41 412.551C1662.19 416.847 1666.67 422.67 1671.42 428.837C1679.43 439.257 1694.34 458.657 1698.19 457.088C1698.42 456.996 1700.34 455.88 1699.01 445.026C1697.78 434.999 1696.9 426.948 1696.38 420.517C1680.12 399.27 1653.72 371.736 1635.97 353.223C1633 350.118 1630.3 347.304 1627.94 344.826C1624.18 345.601 1620.42 345.923 1616.81 345.722C1608.13 345.246 1600.88 341.934 1595.83 336.144C1589.38 328.743 1591.96 325.05 1593.37 323.807C1598.49 319.287 1613.38 323.433 1623.47 334.716C1624.91 336.324 1626.83 338.388 1629.16 340.845C1636.68 338.961 1644.04 335.135 1649.66 329.958C1659.56 320.841 1672.62 317.394 1676.92 319.113C1678.57 319.778 1678.83 321.054 1678.86 321.57C1678.98 323.364 1677.43 325.058 1673.84 327.064C1668.17 330.236 1664.81 337.779 1665.67 345.411C1666.72 354.669 1673.43 361.76 1684.07 364.868C1695.06 368.073 1703.88 366.951 1710.28 361.528C1710.86 361.031 1711.94 360.113 1713.16 360.981C1714.38 361.86 1713.91 363.034 1713.32 364.522L1712.91 365.58C1712.22 367.356 1712.45 369.887 1713.54 372.353C1715.32 376.398 1719.07 379.77 1723.81 381.602C1727.97 383.21 1728.85 387.989 1729.63 392.206C1730.54 397.183 1731.12 398.349 1732.62 398.145C1734.52 397.887 1736.11 396.506 1737.49 393.923C1740.86 387.581 1741.78 376.053 1741.68 365.975C1739.51 360.068 1738.44 353.498 1738.93 347.682C1739.03 346.398 1739.23 344.012 1741.23 344.012C1741.24 344.012 1741.25 344.012 1741.26 344.012C1742.67 344.028 1744.12 344.042 1745.01 358.221C1745.12 359.958 1745.24 362.399 1745.29 365.25C1746.94 369.599 1749.21 373.506 1751.86 376.212C1754.58 378.986 1757.44 380.279 1760.35 380.118C1771.45 379.424 1772.41 369.708 1772.44 359.816C1772.45 355.766 1772.46 353.321 1774.44 352.594C1776.38 351.882 1778.1 353.907 1779.02 354.993C1785.37 362.451 1787.75 380.978 1780.76 402.114C1785.44 397.545 1792.9 389.837 1799.73 382.767C1830.22 351.229 1830.58 351.542 1832.55 353.289C1834.48 355.002 1835.45 355.861 1787.63 414.51C1783.02 420.165 1777.14 426.463 1770.92 433.133C1758.72 446.215 1746.1 459.743 1742.42 469.134C1741.95 470.33 1741.76 471.077 1741.69 471.519C1743.85 470.985 1749.42 467.484 1753.98 464.615C1761.16 460.103 1770.1 454.487 1778.95 450.874C1786.79 447.672 1788.4 443.638 1790.1 439.366C1792.36 433.703 1794.7 427.847 1809.45 424.603C1813.28 423.759 1816.23 422.549 1818.49 421.182C1817.05 414.196 1817.89 407.31 1820.85 403.96C1822.34 402.281 1824.25 401.726 1825.97 402.476C1828.44 403.551 1829.89 407.098 1829.5 411.1C1829.31 413.145 1828.23 418.391 1822.6 422.755C1822.79 423.411 1823 424.067 1823.24 424.722C1824.7 428.721 1828.24 435.598 1835.61 436.703C1846.69 438.373 1868.28 418.901 1879.9 408.444C1883.23 405.442 1885.86 403.07 1887.41 401.943C1894.7 396.648 1896.11 395.698 1897.54 397.206C1898.89 398.641 1897.97 399.755 1894.11 404.448C1888.51 411.259 1877.09 425.137 1879.23 432.649C1886.21 429.462 1893.13 429.152 1900.53 431.462C1903.79 432.479 1907.47 434.022 1907.03 436.935C1906.4 441.056 1896.86 441.983 1893.57 441.983C1885.92 441.983 1880.76 440.502 1877.91 437.474C1872.57 440.571 1866.55 445.814 1859.64 454.254C1843.29 474.225 1825.14 483.596 1802.52 483.741C1801.04 483.749 1799.25 483.693 1797.19 483.628C1783.13 483.179 1756.96 482.351 1753.19 501.384C1749.88 518.106 1757.81 523.803 1764.8 528.828C1766.34 529.937 1767.83 531.004 1769.14 532.145C1771.86 519.774 1773.19 519.378 1774.18 519.082C1774.97 518.839 1775.81 519.091 1776.38 519.72C1777.76 521.245 1777.9 528.849 1777.24 537.922C1778.72 538.516 1780.33 539.012 1782.01 539.366C1781.37 532.898 1783.04 526.424 1786.9 521.077C1792.94 512.712 1797.71 513.528 1800.02 514.748C1804.95 517.371 1806.64 526.334 1803.71 534.323C1801.98 539.009 1798.07 542.061 1792.38 543.153C1790.53 543.51 1788.53 543.63 1786.5 543.543C1786.74 544.346 1787.02 545.144 1787.34 545.935C1790.27 553.061 1796.14 558.015 1803.07 559.187C1808.27 560.078 1811.5 557.598 1815.59 554.473C1819.47 551.505 1823.88 548.141 1830.8 547.177C1844.55 545.247 1849.12 556.548 1853.96 568.496C1854.45 569.714 1854.95 570.951 1855.47 572.194C1862.97 590.198 1881.23 592.257 1895.03 586.554C1910.5 580.16 1912.09 575.316 1912.05 573.529C1912.01 571.15 1909.28 568.732 1904.76 567.06C1904.54 566.979 1904.31 566.9 1904.09 566.823C1901.12 570.426 1897.53 572.628 1894.32 572.559C1891.93 572.506 1889.97 571.194 1888.78 568.866C1887.49 566.332 1888.45 564.66 1889.13 563.889C1891.37 561.372 1897.23 561.303 1902.67 562.644C1902.92 562.267 1903.16 561.875 1903.39 561.465C1907.01 555.087 1907.06 547.94 1903.54 542.347C1899.76 536.335 1893.64 536.218 1887.15 536.096C1881.28 535.983 1875.21 535.868 1871.09 531.08C1867.35 526.727 1866.32 521.096 1868.28 515.628C1870.7 508.865 1877.21 503.783 1885.28 502.366C1894.41 500.771 1899.16 504.448 1903.77 508.007C1906.93 510.453 1909.91 512.763 1914.42 513.495C1920.35 514.459 1927.54 516.268 1930.5 521.746C1933 526.361 1932.26 532.801 1928.16 542.009C1924.93 549.282 1925.81 556.305 1930.59 561.279C1931.37 562.1 1932.24 562.828 1933.14 563.457C1933.52 558.736 1935.3 554.717 1937.37 552.045C1940.15 548.454 1943.76 546.643 1947.01 547.182C1950.66 547.796 1953.33 551.112 1953.81 555.632C1954.33 560.499 1952.07 566.511 1945.86 568.968C1943.21 570.017 1940.14 570.07 1937.1 569.261C1937.4 570.68 1937.86 572.139 1938.52 573.62C1940.54 578.161 1943.47 580.925 1947.23 581.83C1952.34 583.068 1958.89 580.848 1965.2 575.753C1976.15 566.898 1982.6 570.086 1991.92 576.391C1999.95 581.825 2006.95 581.786 2018.67 576.249C2028.12 571.78 2034.22 576.643 2040.11 581.347C2044.87 585.15 2049.8 589.083 2056.98 588.708C2070.81 587.992 2073.6 582.855 2076.31 577.887C2078.15 574.5 2080.06 570.998 2085.28 570.048C2090.29 569.136 2094.61 565.948 2096.83 561.519C2099.24 556.713 2099.02 550.953 2096.21 545.3C2094.45 541.755 2090.95 539.039 2087.57 536.411C2081.82 531.943 2075.31 526.877 2077.79 517.227C2079.94 508.878 2089.13 502.106 2097.83 502.415C2102 502.569 2112.01 504.766 2115.09 521.813C2115.31 523.05 2115.52 524.371 2115.74 525.75C2116.94 533.31 2118.33 542.055 2123.3 547.575C2126.67 542.324 2131.44 538.143 2137.14 535.581C2144.29 532.366 2148.14 534.649 2149.8 536.294C2152.52 539.002 2153.08 543.7 2151.19 547.984C2148.63 553.779 2142.77 556.994 2135.52 556.664C2130.89 556.434 2127.24 555.174 2124.33 553.234C2123.68 554.66 2123.14 556.147 2122.7 557.69C2120.75 564.599 2121.43 571.659 2124.48 576.114C2131.39 586.246 2145.05 589.26 2157.67 583.444C2166.87 579.204 2171.81 582.471 2177.53 586.251C2181.38 588.801 2185.76 591.692 2192.59 593.319C2202.2 595.606 2212.89 590.825 2218.6 581.698C2224.24 572.691 2223.46 562.257 2216.53 553.785C2213.26 549.784 2209.44 547.8 2205.66 546.811C2205.13 546.705 2204.59 546.585 2204.07 546.45C2200.95 545.846 2197.91 545.828 2195.28 545.812C2191.32 545.789 2188.46 545.771 2187.11 543.665C2185.97 541.871 2186.78 539.571 2187.49 538.001C2187.85 537.209 2188.18 536.443 2188.47 535.702C2186.15 532.465 2184.4 528.629 2183.37 524.29C2181.92 518.209 2184.29 516.046 2185.38 515.397C2187.06 514.399 2189.17 514.727 2190.89 516.265C2193.88 518.939 2195.81 525.312 2192.56 535.023C2198.33 541.908 2207.3 545.126 2217.18 543.169C2227.36 541.16 2234.87 540.085 2240.89 539.22C2251.15 537.75 2257.33 536.862 2265.74 532.872C2267.65 531.968 2268.61 530.668 2268.61 529.005C2268.62 526.214 2265.75 522.022 2259.32 518.948L2259.14 518.864C2254.64 516.713 2249.54 514.275 2237.78 498.359C2223.19 478.621 2205.31 482.201 2198.29 484.654C2196.11 485.417 2194.26 486.167 2192.77 486.768C2188.95 488.313 2186.84 489.166 2185.12 487.848C2183.18 486.37 2183.45 483.308 2184.31 475.91C2185 469.993 2184.46 464.942 2182.75 461.006C2181.36 460.865 2179.97 460.587 2178.59 460.172C2174.23 458.852 2163.02 454.51 2163.59 450.329C2163.71 449.485 2164.32 448.061 2167.13 447.994C2173.35 447.899 2178.86 450.061 2182.65 454.216C2183.56 455.218 2184.36 456.311 2185.05 457.494C2190.03 457.468 2194.92 455.393 2198.8 451.521C2204.44 445.893 2206.46 438.042 2204.21 430.519C2202.52 424.899 2199.58 421.005 2195.46 418.943C2188.3 415.352 2179.87 418.359 2179.79 418.391C2179.3 418.562 2178.77 418.529 2178.32 418.29C2173.05 415.497 2168.28 414.772 2164.17 416.127C2158.38 418.034 2155.69 423.522 2155.66 423.577C2155.31 424.301 2154.53 424.709 2153.74 424.583C2152.94 424.456 2152.33 423.822 2152.23 423.025C2151.83 419.885 2149.73 418.59 2146.04 416.571C2141.93 414.326 2136.83 411.531 2135.59 403.804C2134.77 398.74 2131.82 395.721 2128.97 392.801C2126.25 390.006 2123.67 387.365 2123.72 383.415C2123.77 380.29 2121.06 375.513 2116.76 371.259C2111.44 375.386 2104.9 377.428 2098.4 376.914C2091.9 376.399 2089.63 373.175 2088.86 371.296C2087.69 368.473 2088.36 365.105 2090.59 362.511C2093.46 359.178 2098.07 357.902 2102.93 359.097C2107.99 360.339 2112.81 363.066 2116.81 366.411C2121.38 361.901 2123.88 355.958 2123.69 350.037C2123.59 346.583 2122.22 343.693 2120.64 340.344C2118.94 336.729 2117.01 332.631 2116.5 327.165C2115.48 316.037 2110.26 308.265 2102.18 305.843C2098.05 304.603 2091.68 305.084 2087.37 308.256C2090.07 310.196 2092.64 312.377 2093.88 315.921C2095.83 321.51 2094.02 324.555 2092.77 325.872C2091.05 327.686 2088.4 328.347 2085.85 327.599C2082.74 326.684 2080.47 323.948 2079.77 320.278C2078.78 315.094 2080.05 311.359 2081.84 308.776C2078.14 306.034 2074.46 302.502 2073.09 295.526C2070.83 283.905 2065.57 278.323 2057.05 278.555C2048.75 278.75 2043.96 285.271 2040.11 290.51C2037.46 294.127 2035.38 297.013 2032.49 296.844C2030.16 296.729 2028.66 294.639 2027.73 293.073C2024.8 288.135 2021.2 285.317 2017.58 285.137C2013.96 284.944 2010.24 287.361 2006.76 292.086L2006.31 292.689C2000.43 300.674 1994.35 308.911 1986.7 308.223C1982.69 307.851 1979.06 305.69 1976.73 302.295C1974.72 299.358 1972.79 294.205 1975.02 286.352C1976.41 281.463 1974.98 278.574 1973.18 274.915C1970.99 270.479 1968.26 264.957 1970.31 254.673C1972.05 245.957 1976.73 239.172 1983.48 235.567C1989.95 232.12 1997.74 231.833 2004.86 234.792C2011.73 237.651 2016.68 244.658 2017.18 252.232C2017.21 252.711 2017.22 253.184 2017.21 253.652C2017.88 253.845 2018.56 254.045 2019.26 254.25C2021.3 254.846 2023.53 255.498 2025.99 256.187C2032.61 258.04 2039.76 256.478 2045.61 251.903C2051.84 247.029 2055.42 239.651 2055.2 232.163C2054.98 224.74 2052.81 218.484 2049.1 213.966C2048.55 214.398 2047.99 214.803 2047.4 215.178C2042.53 218.299 2037.16 218.655 2032.65 216.165C2026.2 212.592 2026.85 208.879 2027.43 207.448C2028.85 203.95 2034.22 202.126 2039.17 203.465C2042.55 204.38 2046.05 206.159 2049.14 208.913C2052.18 205.397 2053.92 200.679 2053.59 196.256C2053.23 191.461 2051.43 187.754 2048.39 185.531C2045.25 183.237 2040.77 182.559 2036.09 183.679L2034.45 184.07C2024.08 186.569 2013.36 189.146 2005.48 182.134C2002.94 179.874 2000.25 178.093 1997.58 176.848C1998.07 179.913 1997.88 183.22 1996.43 186.769C1992.8 195.684 1985.66 197.94 1980.56 196.259C1976.23 194.828 1972.4 189.987 1974.25 182.734C1975.65 177.223 1979.17 173.349 1984.14 171.828C1986.59 171.076 1989.26 170.928 1992.02 171.338C1991.3 169.784 1990.46 168.263 1989.64 166.754C1986.85 161.674 1984.21 156.875 1986.47 151.82C1989.24 145.62 1991.56 139.402 1989.81 135.919C1988.94 134.193 1987.03 133.021 1983.97 132.34C1981.1 131.702 1977.48 131.886 1973.99 132.063C1968.5 132.335 1963.31 132.602 1960.97 129.525C1959.61 127.743 1959.48 125.259 1960.57 121.924C1961.82 118.129 1961.69 115.349 1960.22 114.487C1958.44 113.452 1954.39 114.706 1951.17 118.23C1948.57 121.07 1946.32 124.9 1944.14 128.606C1940.72 134.437 1937.76 139.473 1933.75 140.025C1931.95 140.267 1930.19 139.59 1928.53 137.991C1922.11 131.807 1916.5 129.49 1910.53 130.88C1910.74 131.416 1910.92 131.982 1911.08 132.582C1912.87 139.202 1911.32 146.693 1907.32 150.798C1904.81 153.377 1901.61 154.361 1898.3 153.565C1895.34 152.849 1893.31 150.636 1892.73 147.493C1891.87 142.896 1894.35 135.947 1900.73 131.56C1902.28 130.495 1903.8 129.611 1905.31 128.907C1904.08 127.332 1902.56 126.075 1900.92 124.715C1897.6 121.97 1893.84 118.858 1891.7 112.372C1888.37 102.228 1882.89 97.5429 1874.99 98.1159C1865.41 98.7651 1858.47 94.8789 1855.42 87.1233C1851.33 76.7193 1845.2 72.5859 1836.13 74.1405C1830.41 75.1149 1826.92 78.1593 1823.22 81.3837C1819.14 84.9405 1814.92 88.6197 1807.68 89.5803C1799.36 90.6837 1795.48 93.6027 1793.77 97.0269C1801.74 104.995 1809.17 115.356 1809.25 126.344C1809.31 134.551 1805.88 142.095 1799.83 147.042C1794.68 151.263 1788.18 153.072 1782.44 151.871C1776.89 150.713 1773.05 147.404 1772.18 143.022C1771.24 138.289 1773.93 133.374 1779.56 129.539C1789.99 122.432 1789.47 113.337 1789 105.312L1788.96 104.553C1788.83 102.151 1789.03 99.9723 1789.59 98.0193C1788.06 96.5637 1786.6 95.2653 1785.3 94.1565C1780.88 90.4065 1779.3 85.5267 1777.91 81.2217C1777.71 80.6115 1777.52 80.0121 1777.32 79.4247C1775.35 79.3395 1773.29 79.1295 1771.16 78.7773C1761.57 77.2047 1759.19 73.6479 1758.62 71.6667C1758.13 69.9195 1758.68 68.1345 1760.1 66.8913C1762.55 64.7493 1766.94 64.5885 1771.28 66.4827C1776.11 68.5875 1778.35 72.0669 1779.87 75.8481C1791.04 75.7329 1798.85 71.2527 1802.76 66.4383C1805.58 62.9715 1806.57 59.0997 1805.4 56.0787C1802.09 47.4969 1797.14 43.8141 1791.89 39.9159C1785.71 35.3241 1779.32 30.5751 1775.16 18.0909C1772.81 11.0529 1768.92 6.3621 1764.19 4.8819C1760.49 3.7287 1756.53 4.62211 1752.71 7.47691L1750.71 8.98409C1743.82 14.1933 1738.84 17.9589 1733.97 15.3231C1726.66 11.3733 1721.61 12.7371 1717.59 19.7415C1711.93 29.5935 1703.86 32.6337 1695.46 28.0743L1694.77 27.7029C1688.32 24.1917 1678.56 18.8889 1671.21 22.9731C1666.74 25.4565 1665.7 31.6575 1664.69 37.6539C1663.8 42.9231 1662.96 47.9001 1659.63 50.1765C1657.95 51.3171 1655.84 51.6285 1653.34 51.1107C1644.76 49.3209 1637.82 50.7393 1634.77 54.9081C1631.94 58.7799 1632.61 64.8717 1636.66 72.0597C1638.64 75.5865 1641.51 78.6255 1644.81 81.0837C1646.78 80.2047 1648.81 79.0869 1650.88 77.7369C1660.19 71.6787 1668.98 70.0569 1674.41 73.4037C1677.46 75.2859 1678.97 78.5523 1678.55 82.3659C1678.04 86.9895 1674.65 90.2721 1669.25 91.3725C1662.15 92.8209 1652.36 90.5445 1644.33 85.1997C1638.59 87.3843 1633.26 87.7257 1628.6 86.1723C1622.57 84.1575 1617.93 79.0971 1615.17 71.5377C1613.36 66.5607 1610.64 63.4455 1607.5 62.7681C1604.74 62.1687 1601.71 63.4545 1598.75 66.4827C1598.04 67.2063 1597.17 68.3205 1596.25 69.4983C1593.37 73.1967 1590.09 77.3835 1586.37 77.0793C1584.52 76.9269 1582.95 75.7011 1581.72 73.4355C1579.62 69.5745 1576.88 67.5051 1573.81 67.4499C1573.77 67.4499 1573.72 67.4499 1573.68 67.4499C1569.95 67.4499 1565.94 70.3383 1563.18 75.0237C1562.76 75.7275 1562.36 76.4331 1561.95 77.1393C1557.8 84.3609 1553.5 91.8273 1541.41 94.5423C1534.42 96.1113 1529.55 100.823 1529.01 106.545C1528.38 113.141 1533.47 119.455 1542.62 123.437C1545.14 124.536 1547.4 125.049 1549.39 125.165C1549.48 117.48 1553.62 111.054 1558.57 109.253C1563.15 107.596 1565.24 109.669 1565.93 110.636C1567.93 113.437 1566.97 118.445 1563.64 122.543C1562.4 124.08 1558.96 127.641 1553.29 128.603C1553.4 129.24 1553.55 129.885 1553.74 130.538C1556.08 138.786 1561.73 139.675 1570.28 141.023L1570.71 141.09C1581.39 142.777 1588.56 151.519 1587.38 161.424C1586.86 165.789 1584.74 169.178 1581.41 170.964C1577.24 173.207 1571.66 172.783 1565.7 169.772C1562.66 168.233 1559.3 167.726 1556.08 168.005C1555.99 172.071 1554.75 175.892 1552.44 179.018C1547.87 185.192 1543.24 185.274 1540.66 183.466C1538.1 181.678 1536.95 177.417 1539.83 173.045C1542.32 169.277 1546.99 166.301 1552.3 165.029C1552.18 164.09 1551.98 163.14 1551.71 162.19C1550.03 156.171 1545.67 151.217 1540.08 148.935C1531.52 145.451 1529.59 141.346 1527.88 137.728C1526.89 135.612 1526.03 133.785 1523.85 132.076C1519.73 128.833 1515.28 128.486 1511.7 128.21C1508.63 127.971 1505.97 127.766 1504.59 125.663C1503.51 124.016 1503.57 121.673 1504.8 118.067C1508.1 108.397 1507.06 99.0789 1502.22 94.8855C1498.54 91.7037 1492.88 91.8117 1486.29 95.1897C1480.3 98.2623 1476.77 102.963 1473.36 107.511C1469.07 113.234 1465.01 118.611 1456.97 118.323C1451.76 118.129 1447.64 119.775 1444.74 123.256C1443.92 124.234 1443.25 125.305 1442.7 126.424C1444.97 129.522 1446.42 133.056 1446.69 136.437C1447.24 143.139 1446.15 146.749 1443.44 147.163C1440.93 147.575 1438.72 144.739 1437.57 139.642C1436.8 136.219 1436.94 131.475 1438.53 127.038C1437.77 126.18 1436.93 125.38 1436.02 124.664C1432.88 122.165 1427.48 119.427 1419.68 120.58C1405.71 122.646 1402.53 138.218 1402.5 138.373C1402.34 139.204 1401.63 139.813 1400.78 139.842C1396.94 139.96 1393.11 142.994 1391.03 147.566C1388.35 153.456 1389.31 160.11 1393.61 165.369C1397.52 170.157 1404.53 171.108 1410.16 171.873C1414.96 172.526 1418.75 173.038 1419.96 175.829C1420.99 178.208 1419.4 180.897 1418.11 182.713C1413.75 188.876 1412.51 195.543 1414.88 200.12C1416.65 203.549 1420.22 205.362 1425.21 205.362C1425.21 205.362 1425.21 205.362 1425.22 205.362C1430.66 205.359 1433.92 203.298 1438.04 200.69C1441.96 198.215 1446.4 195.41 1453.61 193.79C1461.3 192.069 1468.49 194.165 1473.34 199.557C1478.46 205.246 1479.9 213.419 1477.19 221.423C1474.8 228.482 1469.39 232.739 1462.71 232.808C1461.34 232.856 1460.01 232.661 1458.72 232.341C1458.14 233.976 1457.32 235.509 1456.25 236.892C1452.78 241.376 1447.25 243.513 1441.09 242.777C1433.99 241.919 1429.65 237.05 1425.45 232.341C1422.05 228.516 1418.52 224.559 1413.41 222.525C1409.59 221.002 1406.41 221.069 1403.97 222.728C1399.85 225.525 1397.48 232.925 1397.49 243.033C1397.49 252.38 1394.47 257.486 1391.27 262.891C1389.77 265.427 1388.22 268.048 1386.91 271.263C1384.85 276.298 1384.81 280.324 1386.8 282.031C1388.54 283.524 1391.85 283.17 1395.25 281.129L1396.06 280.635C1400.44 277.954 1408.61 272.961 1419.14 275.884C1426.79 278.009 1431.4 282.97 1430.89 288.524C1430.45 293.406 1425.56 299.496 1413.24 300.598C1406.15 301.231 1399.6 304.362 1394.74 309.267C1402.81 316.391 1413.02 316.634 1425.71 314.73C1436.86 313.057 1446.99 316.959 1452.82 325.155C1458.38 332.981 1458.82 343.13 1454 352.306C1449.7 360.512 1441.74 365.016 1432.16 364.645C1426.97 364.449 1422 362.864 1417.82 360.262C1416.45 361.947 1414.61 363.217 1412.34 363.945C1404.28 366.527 1392.8 361.377 1386.43 346.53C1381.27 334.49 1381.59 322.56 1387.34 312.936C1388.06 311.723 1388.86 310.568 1389.73 309.469C1380.17 300.461 1369.69 301.156 1357.72 311.574C1353.54 315.21 1348.82 317.381 1344.17 318.065C1343.91 319.544 1343.56 321.054 1343.12 322.583C1340.28 332.382 1343.82 341.149 1354.6 351.01C1362.77 358.492 1360.99 363.883 1359.85 365.853C1356.55 371.531 1346.55 372.668 1334.39 368.757C1319.86 364.085 1308.71 364.035 1303 368.616C1299.75 371.228 1298.35 375.259 1298.85 380.599C1299.49 387.462 1304.67 391.668 1309.67 395.736C1314.62 399.765 1319.74 403.932 1318.4 410.331C1317.63 414.028 1314.15 415.959 1310.47 418.006C1306.59 420.165 1302.57 422.402 1300.68 426.866C1299.46 429.731 1299.62 434.507 1300.96 435.527C1301.51 435.947 1302.82 435.441 1304.37 434.208C1312.95 427.403 1321.57 425.099 1327.45 428.045C1331.16 429.902 1333.22 433.548 1333.09 438.044C1332.83 446.791 1327.98 449.564 1319.18 454.596L1316.78 455.973C1312.94 458.193 1310.52 461.73 1310.06 465.741C1315.1 466.53 1319.3 469.641 1322.61 475.069C1325.03 479.014 1324.26 481.872 1322.73 483.231C1321.15 484.637 1318.1 485.07 1314.25 482.065C1309.8 478.589 1307.08 474.015 1306.48 469.178C1302.69 469.386 1298.34 471.003 1293.33 474.018C1291.77 474.963 1290.21 476.006 1288.7 477.018C1281.2 482.047 1273.44 487.247 1263.11 481.115C1249.46 473.01 1235.7 474.733 1221.03 486.38C1209.49 495.555 1205.76 509.082 1207.18 517.769C1208.11 523.428 1211.11 527.445 1215.63 529.076C1218.31 530.045 1220.78 530.295 1222.99 530.019C1221.09 521.997 1222.17 514.597 1225.87 511.436C1227.91 509.697 1230.47 509.464 1233.09 510.771C1237.45 512.949 1238.85 518.291 1236.5 523.763C1234.86 527.583 1231.67 530.873 1227.47 532.548C1229.55 539.826 1228.1 544.386 1226.57 549.203C1225.69 551.96 1224.79 554.811 1224.37 558.527C1223.37 567.459 1227.26 573.003 1229.62 573.471C1230.81 573.716 1231.46 572.302 1231.8 571.085C1233.33 565.752 1235.74 562.807 1238.59 562.791C1238.6 562.791 1238.61 562.791 1238.61 562.791C1240.58 562.791 1243.31 564.18 1245.27 570.758C1247.84 579.401 1258.99 589.455 1275.73 584.736C1285.3 582.04 1290.73 573.983 1292.04 566.857C1289.78 566.489 1287.61 565.776 1285.55 564.711C1279.86 561.761 1277.76 557.553 1277.69 554.6C1277.63 552.429 1278.59 550.613 1280.3 549.619C1281.69 548.811 1284.77 547.908 1289.78 550.925C1293.79 553.335 1296.01 557.929 1295.98 563.52C1302.65 563.436 1310.09 560.145 1317.42 553.866C1325.33 547.093 1331.91 544.628 1335.46 547.085C1337.2 548.294 1338.8 551.048 1336.51 557.304C1333.64 565.173 1333.85 571.53 1337.09 574.311C1339.17 576.095 1342.31 576.18 1345.3 574.541C1348.06 573.025 1351.77 568.46 1354.75 564.791C1358.76 559.862 1360.6 557.615 1362.68 558.503C1364.43 559.25 1364.16 561.491 1364.06 562.334C1363.74 564.927 1363.94 568.359 1366.69 569.972C1369.69 571.733 1374.87 570.932 1378.73 568.115C1383.01 564.995 1387.07 565.203 1391.78 565.445C1395.61 565.645 1399.95 565.868 1405.6 564.372C1409.68 563.289 1413.11 561.69 1415.93 559.815C1415.88 559.677 1415.83 559.538 1415.78 559.396C1411.63 547.807 1414.14 536.577 1419.09 533.359C1421.52 531.779 1424.38 532.169 1426.72 534.408C1429.96 537.489 1431.04 542.241 1429.71 547.442C1428.62 551.678 1425.61 556.82 1420.32 561.071C1422.84 566.961 1425.79 570.426 1428.61 570.702C1431.3 571.015 1433.46 568.05 1434.51 566.292C1437.96 560.528 1441.96 557.18 1446.39 556.345C1450.11 555.638 1453.9 556.761 1457.66 559.667C1461.03 562.273 1472.91 570.148 1483.99 561.932C1489.57 557.802 1488.93 551.507 1488.32 545.419C1487.86 540.816 1487.42 536.469 1490.01 533.609C1491.66 531.779 1494.29 530.889 1498.03 530.889C1502.75 530.889 1506.81 530.321 1510.25 529.361C1510.67 520.595 1516.67 512.131 1522.1 509.231C1524.18 508.122 1526.21 508.226 1527.67 509.512C1529.72 511.314 1530.1 515.011 1528.62 518.929C1526.77 523.851 1522.06 528.993 1513.93 531.968C1514.3 535.352 1515.93 539.376 1520.84 542.337C1525.22 544.981 1528.96 544.348 1532.58 543.744C1536.04 543.162 1539.62 542.563 1542.69 545.487C1544.44 547.162 1545.26 549.182 1545.04 551.327C1544.59 555.664 1540.15 560.323 1531.05 565.988C1525.33 569.55 1522.03 574.715 1522.21 579.802C1522.34 583.28 1524.16 586.187 1527.2 587.781C1531.48 590.022 1535.07 589.017 1539.62 587.74C1544.95 586.245 1551.59 584.387 1561.05 587.675C1569.55 590.627 1577.33 590.303 1582.95 586.758C1587.26 584.043 1589.86 579.687 1590.47 574.158C1590.72 571.929 1590.78 569.928 1590.7 568.137C1581.23 569.562 1572.74 568.374 1570.09 559.737C1569 556.196 1569.85 552.962 1572.41 550.866C1575.63 548.238 1580.73 548.066 1585.09 550.444C1587.55 551.778 1592.3 555.398 1593.85 563.86C1596.43 563.317 1599.26 562.58 1602.36 561.653C1611.11 559.038 1615.61 559.774 1620.82 560.63C1624.07 561.161 1627.74 561.762 1633.12 561.578C1639.23 561.366 1643.73 559.947 1648.09 558.576C1656.66 555.884 1664.06 553.555 1678.77 561.808C1681.59 563.391 1684.17 564.219 1686.48 564.48C1686.43 563.564 1686.39 562.664 1686.34 561.78C1685.51 545.49 1685.13 538.055 1688.86 536.011C1691.12 534.778 1693.63 536.241 1695.32 537.449C1704.64 544.112 1705.25 554.673 1701.09 561.227C1698.86 564.743 1695.09 567.419 1690.28 568.045C1690.52 572.96 1690.74 578.334 1690.85 584.259C1691.56 619.346 1687.14 693.549 1683.58 706.412C1683.05 708.348 1682.17 710.598 1680.14 710.814C1677.64 711.077 1676.2 708.27 1674.17 704.388C1673.23 702.587 1671.03 698.37 1669.99 698.252C1670 698.254 1669.51 698.417 1668.75 699.853C1666.93 703.268 1664.72 704.998 1662.19 704.998C1662.16 704.998 1662.12 704.998 1662.08 704.998C1657.75 704.913 1653.36 699.801 1647.84 688.423C1645.42 683.432 1644.01 682.31 1643.25 682.248C1641.39 682.077 1637.85 687.176 1633.72 693.052C1631.7 695.926 1629.42 699.184 1626.68 702.84C1624.12 706.254 1620.85 709.289 1617.24 711.854C1618.9 713.384 1620.66 714.955 1622.54 716.474C1625.01 718.475 1627.18 719.343 1628.98 719.074C1631.78 718.648 1633.9 715.467 1635.78 712.661C1637.63 709.889 1639.38 707.27 1641.99 707.27C1642.01 707.27 1642.03 707.27 1642.05 707.27C1644.37 707.305 1645.97 709.433 1646.97 711.03C1648.69 713.787 1651.07 717.072 1653.38 720.249C1660.85 730.55 1665.31 737.043 1662.89 740.54C1661.2 742.992 1657.32 742.272 1654.55 741.516C1647.83 739.682 1636.99 741.286 1626.51 742.838C1611.26 745.096 1596.86 747.226 1593.73 738.891C1591.94 734.102 1587.57 734.586 1580.58 735.954C1575.23 737.001 1569.17 738.186 1566.99 732.883C1566.67 732.116 1566.3 731.62 1565.97 731.525C1564.99 731.25 1562.67 732.883 1560.97 734.082C1557.59 736.474 1552.95 739.744 1549.2 736C1547.23 734.03 1545.17 730.945 1543.18 727.963C1541.52 725.474 1539.1 721.834 1537.81 720.911C1537.75 721.074 1537.67 721.305 1537.59 721.628C1533.45 738.293 1526.92 738.303 1490.8 738.227L1489.66 738.225C1489.57 738.225 1489.47 738.225 1489.38 738.225C1477.44 738.225 1474.34 739.338 1473.56 739.832C1475.52 743.024 1493.17 750.089 1526.05 760.842C1638.06 797.474 1692.12 845.513 1694.74 867.925C1695.19 871.825 1693.9 874.913 1691.11 876.622C1684.07 880.931 1669.12 876.083 1650.09 863.342L1648.77 862.458C1580.35 816.647 1420.13 709.367 1088.14 672.377C1043.49 667.399 944.701 662.836 890.427 681.176C839.837 698.27 672.658 782.02 634.01 801.496C663.514 799.614 768.102 794.122 982.778 794.122C1062.27 794.122 1140.79 799.98 1212.66 808.504C1402.27 816.546 1526.55 846.923 1550.11 855.756C1564.71 861.233 1572.59 868.044 1570.69 873.534C1568.3 880.436 1552.51 880.349 1530.47 873.322C1498.07 862.983 1371.47 830.978 1212.22 812.094C1125.27 808.424 1024.59 809.46 913.482 819.449C745.452 834.555 640.93 869.407 582.836 895.983C538.821 916.118 514.096 934.665 503.134 944.079C519.873 937.839 560.666 924.447 632.396 911.211C722.331 894.617 880.835 874.833 1125.21 874.833C1516.85 874.833 1692.93 936.989 1698.96 949.687C1699.42 950.656 1699.32 951.693 1698.69 952.461C1697.99 953.322 1696.53 955.105 1683.43 951.879C1653.15 944.42 1483.03 928.689 1265.8 925.213C1077.53 922.208 808.372 927.764 595.245 971.353C530.305 984.635 493.401 1000.87 485.195 1006.77C486.863 1006.54 489.675 1005.96 494.316 1004.54C511.563 999.277 687.059 980.052 926.813 972.411C1136.23 965.739 1438.23 966.959 1687.71 1010.65C1715.55 1015.53 1731.1 1023.07 1730.38 1031.33C1729.72 1038.94 1715.35 1043.48 1691.94 1043.48H2.18445C1.18425 1043.48 0.373047 1042.67 0.373047 1041.67C0.373047 1040.67 1.18425 1039.86 2.18445 1039.86H1691.94C1716.94 1039.86 1726.47 1034.57 1726.78 1031.01C1727.07 1027.66 1719.15 1019.84 1687.08 1014.22C1437.91 970.574 1136.17 969.362 926.929 976.031C691.44 983.535 511.965 1002.94 495.374 1008C482.895 1011.82 481.451 1010.38 480.674 1009.61C480.045 1008.98 479.827 1008.08 480.09 1007.2C481.866 1001.25 522.732 982.485 594.52 967.805C807.966 924.15 1077.42 918.576 1265.86 921.592C1483.36 925.071 1653.88 940.868 1684.3 948.362C1689.86 949.733 1692.91 950.067 1694.51 950.097C1687.33 944.736 1648.38 927.986 1558.23 911.316C1477.17 896.325 1336.25 878.456 1125.21 878.456C881.303 878.456 723.107 898.175 633.347 914.718C536.087 932.645 495.996 950.803 495.603 950.985C494.822 951.342 493.895 951.107 493.386 950.414C492.877 949.722 492.924 948.767 493.499 948.128C494.451 947.07 517.539 921.922 580.988 892.844C639.363 866.09 744.377 831.014 913.158 815.84C1004.8 807.603 1089.41 805.452 1165.09 807.008C1106.75 801.345 1045.06 797.744 982.778 797.744C725.258 797.744 626.304 805.646 625.335 805.728C624.471 805.79 623.678 805.248 623.444 804.416C623.208 803.583 623.594 802.698 624.368 802.307C626.437 801.257 831.973 697.103 889.268 677.744C944.146 659.201 1043.61 663.769 1088.54 668.775C1421.41 705.864 1582.14 813.489 1650.78 859.447L1652.1 860.331C1672.78 874.176 1685.02 876.093 1689.22 873.531C1690.81 872.562 1691.43 870.866 1691.14 868.346C1689.25 852.158 1644.77 803.481 1524.93 764.284C1477.46 748.76 1469.14 743.655 1469.85 739.196C1470.31 736.341 1473.79 734.552 1489.67 734.603L1490.8 734.604C1527.21 734.651 1530.72 734.276 1534.07 720.753C1534.61 718.611 1535.61 717.396 1537.05 717.145C1539.97 716.618 1542.59 720.541 1546.2 725.952C1548.09 728.789 1550.04 731.721 1551.76 733.438C1553.13 734.81 1554.98 733.877 1558.88 731.123C1561.68 729.146 1564.33 727.278 1566.98 728.047C1568.44 728.47 1569.57 729.632 1570.34 731.504C1571.29 733.814 1574.11 733.527 1579.89 732.399C1585.89 731.223 1594.12 729.611 1597.13 737.618C1599.22 743.216 1612.83 741.203 1625.98 739.254C1636.83 737.646 1648.05 735.989 1655.51 738.021C1659.15 739.016 1659.93 738.462 1659.93 738.455C1660.76 736.592 1654.05 727.343 1650.45 722.375C1648.11 719.148 1645.69 715.812 1643.9 712.95C1642.65 710.957 1642 710.892 1642 710.892C1641.99 710.892 1641.99 710.892 1641.99 710.892C1641.32 710.892 1639.67 713.351 1638.79 714.672C1636.61 717.932 1633.91 721.989 1629.52 722.654C1626.64 723.102 1623.6 721.994 1620.26 719.29C1618.05 717.502 1616.01 715.666 1614.13 713.906C1603.22 720.554 1590.42 723.032 1585.1 719.152C1583.52 717.997 1580.4 714.527 1585.57 707.264C1589.53 701.698 1593.18 698.931 1597.06 698.562C1602.72 698.006 1607.58 702.658 1613.72 708.527C1614.01 708.803 1614.31 709.086 1614.61 709.371C1618.03 707.001 1621.21 704.1 1623.78 700.668C1626.48 697.056 1628.76 693.823 1630.76 690.97C1636.49 682.816 1639.67 678.334 1643.54 678.638C1646.19 678.852 1648.38 681.23 1651.1 686.843C1657.2 699.419 1660.64 701.345 1662.15 701.375C1662.16 701.375 1662.17 701.375 1662.18 701.375C1663.54 701.375 1664.77 699.624 1665.55 698.147C1666.02 697.277 1667.43 694.629 1669.99 694.629C1670 694.629 1670.01 694.629 1670.01 694.629C1673.18 694.643 1675.22 698.562 1677.38 702.712C1678.05 703.996 1678.99 705.784 1679.67 706.715C1679.79 706.423 1679.94 706.013 1680.09 705.444C1683.51 693.084 1687.92 618.379 1687.23 584.332C1687.11 578.412 1686.9 573.038 1686.66 568.121C1683.7 567.882 1680.45 566.901 1677 564.966C1663.65 557.48 1657.27 559.49 1649.18 562.031C1644.81 563.407 1639.85 564.966 1633.25 565.196C1627.51 565.404 1623.65 564.76 1620.24 564.203C1615.27 563.39 1611.34 562.746 1603.4 565.121C1600.43 566.009 1597.34 566.847 1594.29 567.484C1594.42 569.593 1594.37 571.942 1594.07 574.556C1593.34 581.124 1590.08 586.545 1584.89 589.821C1578.31 593.965 1569.42 594.42 1559.86 591.094C1551.47 588.182 1545.7 589.802 1540.6 591.227C1535.7 592.602 1531.07 593.899 1525.52 590.988C1521.3 588.774 1518.77 584.747 1518.59 579.935C1518.36 573.534 1522.3 567.17 1529.13 562.913C1538.91 556.824 1541.22 553.05 1541.43 550.956C1541.5 550.307 1541.44 549.306 1540.19 548.106C1538.51 546.509 1536.63 546.735 1533.18 547.314C1529.31 547.965 1524.5 548.769 1518.97 545.437C1513.13 541.919 1511 537.179 1510.41 533.056C1506.84 533.976 1502.72 534.51 1498.03 534.51C1495.4 534.51 1493.61 535.025 1492.69 536.038C1491.18 537.706 1491.54 541.275 1491.93 545.055C1492.57 551.485 1493.38 559.485 1486.15 564.842C1477.29 571.408 1465.81 570.545 1455.44 562.53C1452.54 560.288 1449.72 559.403 1447.06 559.902C1443.74 560.53 1440.47 563.381 1437.62 568.151C1434.31 573.674 1430.7 574.549 1428.25 574.305C1425.28 574.013 1421.13 571.765 1417.31 563.225C1414.3 565.139 1410.72 566.759 1406.53 567.872C1400.33 569.515 1395.49 569.26 1391.59 569.062C1387.24 568.832 1384.11 568.674 1380.87 571.038C1376.54 574.19 1369.66 575.915 1364.86 573.093C1363.04 572.025 1360.2 569.441 1360.33 563.749C1359.44 564.766 1358.42 566.02 1357.57 567.072C1354.22 571.19 1350.43 575.858 1347.05 577.712C1342.7 580.1 1337.98 579.848 1334.73 577.057C1330.23 573.196 1329.65 565.542 1333.11 556.056C1334.45 552.409 1334.1 550.547 1333.4 550.059C1332.07 549.141 1327.35 550.13 1319.78 556.616C1311.68 563.558 1303.32 567.147 1295.73 567.149C1295.71 567.149 1295.69 567.149 1295.67 567.149C1294.26 575.495 1287.95 585.056 1276.72 588.222C1257.6 593.599 1244.79 581.853 1241.8 571.788C1240.49 567.375 1239.06 566.411 1238.61 566.411C1238.61 566.411 1238.61 566.411 1238.61 566.411C1237.95 566.415 1236.47 567.955 1235.29 572.076C1234.05 576.407 1231.18 577.469 1228.92 577.022C1224.07 576.063 1219.63 568.24 1220.77 558.12C1221.23 554.051 1222.23 550.89 1223.12 548.102C1224.59 543.458 1225.77 539.748 1223.97 533.508C1221.07 533.973 1217.84 533.719 1214.4 532.479C1208.59 530.383 1204.76 525.365 1203.61 518.35C1201.67 506.496 1207.91 492.181 1218.78 483.539C1234.54 471.025 1250.08 469.164 1264.96 477.996C1273.33 482.963 1279.52 478.811 1286.68 474.005C1288.23 472.971 1289.82 471.9 1291.46 470.912C1297 467.574 1302 465.791 1306.44 465.561C1306.96 460.299 1310.04 455.679 1314.97 452.833L1317.38 451.446C1325.79 446.639 1329.27 444.649 1329.47 437.933C1329.56 434.861 1328.27 432.498 1325.83 431.279C1321.25 428.986 1314.07 431.134 1306.63 437.04C1302.72 440.139 1300.2 439.495 1298.77 438.405C1295.58 435.977 1295.79 429.109 1297.34 425.446C1299.72 419.835 1304.71 417.062 1308.72 414.835C1311.78 413.132 1314.42 411.662 1314.86 409.584C1315.7 405.549 1312.57 402.76 1307.38 398.541C1302.06 394.213 1296.03 389.307 1295.25 380.93C1294.64 374.397 1296.54 369.161 1300.74 365.786C1307.52 360.338 1319.54 360.171 1335.5 365.303C1346.82 368.948 1354.74 367.42 1356.71 364.029C1358.18 361.503 1356.48 357.633 1352.15 353.675C1344.75 346.902 1335.4 336.204 1339.64 321.568C1339.96 320.459 1340.23 319.362 1340.45 318.289C1335.43 318.162 1330.69 316.239 1327.02 312.495C1323.79 309.194 1322.85 303.856 1324.84 300.077C1326.54 296.828 1330.01 295.388 1334.36 296.148C1337.74 296.734 1340.46 298.547 1342.25 301.397C1344.23 304.572 1345.04 309.116 1344.66 314.284C1348.32 313.55 1352.02 311.73 1355.34 308.838C1368.59 297.305 1381.27 296.599 1392.13 306.75C1397.59 301.223 1404.96 297.696 1412.92 296.985C1422.37 296.141 1426.94 291.96 1427.29 288.19C1427.63 284.466 1424.05 281.004 1418.17 279.372C1409.16 276.869 1402.14 281.161 1397.95 283.723L1397.11 284.23C1392.29 287.133 1387.43 287.34 1384.44 284.777C1381.16 281.961 1380.84 276.535 1383.56 269.886C1384.97 266.428 1386.59 263.691 1388.16 261.043C1391.22 255.861 1393.86 251.384 1393.86 243.029C1393.86 231.533 1396.73 223.257 1401.94 219.725C1405.44 217.355 1409.75 217.16 1414.76 219.156C1420.66 221.505 1424.47 225.787 1428.16 229.926C1432.25 234.518 1435.78 238.483 1441.52 239.175C1446.47 239.779 1450.68 238.171 1453.38 234.67C1454.22 233.587 1454.87 232.381 1455.32 231.088C1452.03 229.45 1449.4 226.757 1448.23 223.518C1446.42 218.521 1448.17 214.891 1450.83 213.889C1453.19 213.008 1456.4 214.197 1458.24 218.882C1459.54 222.213 1459.97 225.628 1459.55 228.822C1460.56 229.068 1461.61 229.213 1462.67 229.182C1467.82 229.128 1471.86 225.876 1473.76 220.259C1476.04 213.513 1474.88 206.678 1470.65 201.976C1466.7 197.586 1460.78 195.888 1454.41 197.319C1447.8 198.801 1443.65 201.43 1439.98 203.747C1435.72 206.436 1431.71 208.975 1425.22 208.981C1425.22 208.981 1425.21 208.981 1425.2 208.981C1418.87 208.981 1414.06 206.425 1411.66 201.78C1408.67 195.998 1410.01 187.889 1415.16 180.615C1416.59 178.59 1416.76 177.559 1416.63 177.269C1416.24 176.351 1412.44 175.834 1409.67 175.459C1403.74 174.655 1395.61 173.551 1390.8 167.658C1385.61 161.308 1384.47 153.236 1387.73 146.063C1390.15 140.762 1394.58 137.083 1399.28 136.347C1400.5 132.093 1405.32 119.038 1419.15 116.994C1428.24 115.65 1434.57 118.881 1438.28 121.824C1438.94 122.35 1439.57 122.909 1440.17 123.496C1440.69 122.603 1441.28 121.743 1441.95 120.934C1445.56 116.606 1450.79 114.445 1457.11 114.702C1463.21 114.948 1466.43 110.704 1470.46 105.334C1473.95 100.686 1477.9 95.4171 1484.64 91.9647C1495.43 86.4375 1501.76 89.7039 1504.58 92.1435C1510.63 97.3755 1512.06 108.009 1508.23 119.236C1507.11 122.517 1507.48 123.46 1507.61 123.67C1508.02 124.291 1510.03 124.446 1511.98 124.597C1515.83 124.894 1521.11 125.304 1526.09 129.229C1528.94 131.469 1530.07 133.866 1531.16 136.182C1532.72 139.497 1534.19 142.626 1541.44 145.579C1548.07 148.279 1553.21 154.123 1555.2 161.208C1555.5 162.291 1555.73 163.373 1555.87 164.447C1559.72 164.107 1563.71 164.707 1567.33 166.537C1572.13 168.963 1576.64 169.412 1579.7 167.772C1581.99 166.543 1583.4 164.199 1583.78 160.994C1584.72 153.063 1578.86 146.044 1570.15 144.667L1569.71 144.6C1560.87 143.206 1553.23 142.001 1550.25 131.527C1549.99 130.623 1549.8 129.723 1549.66 128.831C1547.16 128.737 1544.33 128.131 1541.17 126.756C1530.51 122.119 1524.62 114.433 1525.4 106.201C1526.09 98.8893 1532.07 92.9253 1540.61 91.0059C1551.15 88.6395 1554.87 82.1745 1558.81 75.3309C1559.22 74.6145 1559.63 73.8963 1560.06 73.1817C1563.51 67.3239 1568.77 63.7863 1573.87 63.8253C1576.98 63.8799 1581.41 65.2917 1584.9 71.7033C1585.24 72.3363 1585.93 73.4067 1586.67 73.4667C1588.41 73.6809 1591.54 69.6411 1593.39 67.2675C1594.38 66.0063 1595.31 64.8159 1596.16 63.9459C1599.98 60.0405 1604.28 58.3635 1608.26 59.2251C1612.66 60.1767 1616.32 64.1067 1618.57 70.2975C1620.94 76.7817 1624.8 81.0819 1629.75 82.7337C1633.01 83.8287 1636.75 83.7579 1640.82 82.5657C1637.91 80.1015 1635.38 77.1801 1633.5 73.8369C1628.71 65.3361 1628.12 57.8523 1631.84 52.7673C1635.76 47.4201 1644.07 45.4749 1654.08 47.5617C1655.6 47.8833 1656.74 47.7543 1657.58 47.1813C1659.64 45.7749 1660.35 41.5371 1661.11 37.0497C1662.21 30.5265 1663.46 23.1333 1669.45 19.8045C1678.54 14.7531 1689.78 20.8641 1696.5 24.5163L1697.18 24.8877C1705.54 29.4177 1711.18 23.6091 1714.44 17.9349C1719.47 9.17971 1726.62 7.2303 1735.69 12.1335C1738.38 13.5909 1742.13 10.9257 1748.52 6.0915L1750.54 4.5741C1755.25 1.0473 1760.48 -0.0740969 1765.27 1.4241C1771.14 3.2601 1775.87 8.7717 1778.59 16.9431C1782.4 28.3443 1788.06 32.5527 1794.05 37.0059C1799.48 41.0403 1805.09 45.2127 1808.78 54.7749C1810.42 59.0217 1809.22 64.2345 1805.57 68.7201C1801.26 74.0229 1792.9 78.9861 1781.14 79.4355C1781.21 79.6599 1781.28 79.8831 1781.36 80.1057C1782.72 84.3243 1784.01 88.3107 1787.64 91.3923C1788.78 92.3595 1789.94 93.3873 1791.11 94.4679C1793.87 89.8833 1799.25 87.0429 1807.2 85.9887C1813.36 85.1715 1816.99 82.0053 1820.84 78.6519C1824.75 75.2415 1828.8 71.7147 1835.52 70.5687C1846.27 68.7273 1854.1 73.8585 1858.79 85.7961C1861.29 92.1369 1866.66 95.0697 1874.73 94.5003C1884.4 93.8373 1891.27 99.4581 1895.14 111.24C1896.95 116.733 1900 119.254 1903.23 121.923C1905.21 123.563 1907.23 125.235 1908.82 127.581C1916.3 125.462 1923.4 128.023 1931.04 135.379C1932.28 136.569 1933.01 136.467 1933.25 136.435C1935.52 136.122 1938.32 131.367 1941.02 126.769C1943.29 122.904 1945.64 118.907 1948.49 115.785C1952.75 111.122 1958.45 109.258 1962.04 111.359C1963.86 112.424 1966.54 115.36 1964.01 123.056C1963.54 124.489 1963.13 126.394 1963.84 127.327C1965.03 128.886 1969.69 128.654 1973.8 128.443C1977.54 128.256 1981.4 128.061 1984.75 128.802C1988.94 129.735 1991.66 131.53 1993.05 134.29C1995.35 138.868 1993.5 144.958 1989.78 153.297C1988.25 156.708 1990.36 160.554 1992.81 165.01C1994.05 167.268 1995.4 169.741 1996.39 172.429C2000.27 173.779 2004.2 176.144 2007.89 179.427C2014.36 185.182 2023.71 182.929 2033.6 180.548L2035.24 180.154C2040.96 178.79 2046.53 179.684 2050.53 182.605C2054.45 185.473 2056.76 190.099 2057.2 195.986C2057.61 201.533 2055.49 207.273 2051.68 211.523C2055.67 216.238 2058.54 222.978 2058.82 232.053C2059.08 240.688 2054.97 249.175 2047.84 254.756C2041.08 260.051 2032.76 261.846 2025.01 259.674C2022.54 258.981 2020.29 258.327 2018.25 257.727C2017.74 257.58 2017.25 257.435 2016.77 257.297C2015.76 261.62 2013.02 265.263 2008.85 267.668C2002.94 271.076 1998.87 269.744 1996.97 268.646C1994.04 266.949 1992.14 263.525 1992.14 259.922C1992.15 256.846 1993.56 254.193 1995.93 252.826C2001.01 249.893 2005.77 250.48 2013.57 252.617C2013.57 252.565 2013.56 252.516 2013.56 252.467C2013.16 246.335 2009.01 240.441 2003.47 238.138C1997.36 235.598 1990.69 235.824 1985.19 238.762C1981.1 240.945 1975.82 245.599 1973.87 255.38C1972.06 264.458 1974.28 268.959 1976.43 273.312C1978.32 277.146 1980.27 281.11 1978.5 287.341C1976.65 293.844 1978.14 297.949 1979.72 300.246C1981.43 302.751 1984.1 304.342 1987.03 304.613C1992.64 305.163 1998.11 297.717 2003.4 290.541L2003.84 289.938C2009.19 282.673 2014.35 281.351 2017.76 281.517C2022.63 281.761 2027.28 285.206 2030.85 291.224C2031.77 292.778 2032.43 293.213 2032.67 293.224C2033.58 293.349 2035.67 290.433 2037.19 288.363C2041.29 282.795 2046.89 275.17 2056.96 274.932C2064.14 274.797 2073.38 278.076 2076.65 294.832C2077.79 300.695 2080.94 303.63 2084.29 306.08C2089.62 301.512 2097.79 300.745 2103.22 302.372C2112.79 305.241 2118.94 314.157 2120.11 326.832C2120.56 331.663 2122.27 335.291 2123.92 338.798C2125.6 342.357 2127.18 345.717 2127.32 349.923C2127.53 356.793 2124.68 363.656 2119.49 368.858C2124.31 373.683 2127.4 379.257 2127.35 383.465C2127.31 385.911 2129.19 387.835 2131.57 390.269C2134.51 393.281 2138.17 397.031 2139.16 403.229C2140.12 409.205 2143.84 411.239 2147.78 413.394C2150.34 414.797 2152.97 416.234 2154.52 418.755C2156.22 416.636 2158.99 414.032 2162.99 412.702C2167.9 411.066 2173.39 411.75 2179.33 414.732C2181.83 413.979 2189.83 412.068 2197.08 415.703C2202.13 418.231 2205.69 422.865 2207.68 429.478C2210.28 438.168 2207.87 447.597 2201.36 454.085C2197.21 458.235 2192.04 460.629 2186.69 461.052C2188.19 465.285 2188.61 470.393 2187.91 476.331C2187.57 479.246 2187.07 483.539 2187.36 484.849C2188.14 484.736 2189.87 484.035 2191.42 483.409C2192.94 482.793 2194.84 482.026 2197.1 481.235C2204.87 478.518 2224.68 474.527 2240.69 496.206C2251.92 511.398 2256.39 513.531 2260.71 515.597L2260.88 515.68C2267.89 519.035 2272.25 524.144 2272.24 529.011C2272.23 532.101 2270.48 534.634 2267.3 536.145C2258.39 540.37 2252 541.287 2241.41 542.806C2235.43 543.666 2227.97 544.734 2217.88 546.726C2216.86 546.927 2215.84 547.082 2214.84 547.187C2216.4 548.335 2217.91 549.75 2219.34 551.49C2227.3 561.224 2228.17 573.236 2221.67 583.622C2215.15 594.045 2202.84 599.482 2191.76 596.843C2184.29 595.069 2179.43 591.855 2175.53 589.275C2169.93 585.573 2166.55 583.339 2159.19 586.735C2144.93 593.304 2129.42 589.777 2121.48 578.158C2117.8 572.76 2116.95 564.74 2119.21 556.707C2119.79 554.671 2120.54 552.716 2121.45 550.865C2115.05 544.467 2113.4 534.079 2112.16 526.32C2111.95 524.967 2111.74 523.67 2111.52 522.459C2109.66 512.127 2104.75 506.296 2097.7 506.037C2090.69 505.793 2083.02 511.432 2081.3 518.13C2079.41 525.478 2084.22 529.221 2089.8 533.552C2093.5 536.43 2097.32 539.405 2099.45 543.689C2102.78 550.388 2103 557.296 2100.07 563.144C2097.34 568.586 2092.06 572.5 2085.93 573.613C2082.41 574.255 2081.18 576.505 2079.49 579.621C2076.61 584.917 2073.02 591.507 2057.16 592.33C2048.62 592.786 2042.89 588.207 2037.85 584.181C2032.14 579.625 2027.63 576.026 2020.21 579.528C2007.28 585.639 1999.06 585.602 1989.89 579.393C1981.51 573.721 1976.7 571.11 1967.47 578.571C1960.29 584.379 1952.59 586.857 1946.38 585.354C1941.53 584.186 1937.67 580.638 1935.21 575.093C1934.08 572.571 1933.45 570.094 1933.2 567.732C1931.32 566.741 1929.53 565.415 1927.97 563.789C1922.13 557.699 1920.99 549.225 1924.85 540.539C1928.4 532.551 1929.21 526.969 1927.32 523.47C1925.59 520.28 1921.43 518.307 1913.84 517.073C1908.42 516.192 1904.77 513.365 1901.55 510.873C1897.2 507.512 1893.45 504.611 1885.91 505.936C1879.12 507.126 1873.67 511.308 1871.69 516.848C1870.18 521.054 1870.96 525.38 1873.84 528.718C1876.9 532.278 1881.68 532.369 1887.22 532.475C1894.05 532.604 1901.78 532.752 1906.61 540.42C1910.85 547.159 1910.82 555.695 1906.54 563.253C1906.44 563.421 1906.35 563.587 1906.25 563.751C1912.17 565.996 1915.6 569.526 1915.68 573.46C1915.78 579.042 1909.3 584.573 1896.42 589.901C1880.52 596.474 1860.2 592.98 1852.12 573.587C1851.6 572.333 1851.1 571.085 1850.6 569.855C1845.42 557.072 1841.73 549.307 1831.3 550.763C1825.32 551.596 1821.49 554.522 1817.79 557.352C1813.57 560.571 1809.22 563.903 1802.46 562.759C1794.3 561.376 1787.39 555.601 1783.99 547.307C1783.43 545.938 1782.98 544.544 1782.64 543.14C1780.68 542.816 1778.75 542.318 1776.93 541.667C1775.9 552.831 1773.82 565.189 1771.45 570.973C1768.73 577.616 1766.2 583.32 1763.89 588.08C1757.68 643.202 1759.99 691.209 1760.83 698.799C1761.8 707.522 1761.31 710.632 1758.9 711.122C1757.11 711.479 1754.14 712.089 1744.42 679.974C1743.47 686.147 1743.23 701.188 1746.34 720.905C1747.17 726.135 1745.31 727.978 1743.61 728.602C1738.69 730.39 1729.97 722.917 1725.21 715.076C1724.82 714.441 1724.5 713.967 1724.24 713.615C1723.97 716.774 1724.79 724.341 1726.62 731.894C1727.2 734.295 1727.81 734.699 1727.93 734.756C1728.39 734.972 1729.73 734.338 1730.81 733.828C1733.69 732.468 1738.04 730.41 1742.43 734.829C1748.11 740.562 1752.89 743.164 1755.54 741.959C1757.81 740.931 1759.03 736.75 1758.66 731.306C1758.29 725.938 1759.99 724.507 1762.43 723.072C1764.59 721.806 1767.54 720.071 1768.76 708.121C1769.66 699.261 1770.88 696.041 1773.42 695.816C1776.92 695.457 1778.83 701.148 1783.45 717.339L1783.8 718.562C1784.55 721.202 1786.85 729.238 1789.35 729.744C1791.97 730.287 1797.45 723.452 1799.51 720.888C1802.65 716.988 1805.66 715.47 1807.98 716.598C1810.47 717.821 1811.03 721.445 1809.62 727.374C1809.16 729.348 1809.31 730.682 1810.12 731.699C1812.59 734.813 1821.83 736.328 1838.22 736.244C1873.03 736.104 1873.3 739.819 1873.45 741.805C1873.61 743.979 1873.91 748.022 1829.05 754.591C1803.18 758.38 1783.5 762.312 1769.13 765.183C1747.59 769.486 1736.78 771.65 1729.86 768.846C1727.54 767.905 1725.49 766.856 1723.68 765.931C1717.43 762.724 1715.08 761.835 1711.46 766.073C1707.4 770.811 1703.92 771.114 1701.73 770.546C1696.88 769.279 1693.23 762.653 1690.88 750.852C1690.72 750.023 1690.55 749.481 1690.41 749.135C1688.01 751.997 1683.35 766.161 1680.77 784.466C1679.55 793.148 1681.13 798.981 1685.35 801.336C1690.21 804.051 1698.25 801.906 1705.35 796.007C1712.15 790.374 1715.93 788.654 1718.44 790.07C1721.38 791.732 1720.66 796.379 1719.76 802.263C1719.51 803.864 1719.26 805.523 1719.08 807.138C1718.72 810.423 1719.76 811.21 1720.11 811.47C1724.22 814.577 1740.49 808.01 1759.33 800.399C1775.23 793.975 1795.03 785.979 1817.15 779.447C1848.51 770.186 1878.54 763.866 1900.47 759.253C1916.65 755.848 1932 752.618 1935.58 750.478C1934.66 750.027 1932.56 749.277 1927.82 748.343C1907.14 744.263 1897.83 741.562 1897.35 736.346C1896.9 731.429 1904.79 726.497 1927.51 717.5C2008.61 685.372 2216.71 629.198 2482.19 622.443C2641.64 618.382 2726.02 637.318 2764.3 685.75C2764.76 686.332 2764.82 687.135 2764.45 687.777C2764.08 688.419 2763.37 688.773 2762.62 688.667C2761.81 688.549 2680.24 677.044 2558.65 677.044C2558.34 677.044 2558.06 677.044 2557.75 677.044C2445.1 677.097 2274.26 687.336 2100.18 735.811C1866.23 800.96 1744.99 879.047 1742.14 889.673C1743.13 889.917 1747.31 890.131 1762.05 884.496C1920.78 823.822 2031.93 788.732 2145.72 763.379C2279.5 733.568 2417.43 718.236 2579.79 715.125C2785.85 711.177 2865.39 800.915 2871.47 817.59C2871.69 818.189 2871.58 818.858 2871.17 819.353C2870.77 819.848 2870.13 820.101 2869.51 820.002C2868.6 819.872 2777.47 806.799 2641.11 803.719C2515.28 800.882 2324.1 806.206 2127.93 847.729C1895.28 896.976 1754.97 952.459 1746.06 963.756C1748.27 964.164 1757.01 964.212 1789.96 955.193C2066.41 879.551 2593.08 798.143 2845.58 863.653C2945.77 889.643 2989.02 947.687 2989.45 948.27C2989.86 948.841 2989.91 949.602 2989.56 950.22C2989.22 950.835 2988.54 951.182 2987.85 951.143C2983.75 950.83 2573.98 920.296 2188.75 953.197C1943.38 974.155 1799.52 1008.09 1791.78 1018.05C1792.99 1018.67 1798.03 1020.12 1818.08 1018.95C2044.28 1005.69 2700.25 983.899 2869.64 996.776C2942.42 1002.31 2995.16 1016.8 3026.4 1039.85H3499.81C3500.81 1039.85 3501.63 1040.66 3501.63 1041.67C3501.63 1042.66 3500.81 1043.48 3499.81 1043.48H3029.44C3029.68 1044.34 3029.58 1045.11 3029.36 1045.72C3027.86 1049.91 3023.91 1060.94 2797.46 1060.94ZM2115.39 1041.54C2204.24 1044.92 2397.87 1051.5 2583.34 1054.99C2711.53 1057.4 2813.92 1057.95 2887.65 1056.61C3009.36 1054.41 3024.91 1047.41 3025.95 1044.51C3025.98 1044.42 3025.82 1044.05 3025.16 1043.48H2517.69C2411.62 1043.48 2303.14 1042.74 2215.97 1042.15C2177.71 1041.89 2142.91 1041.65 2115.39 1041.54ZM1260.47 814.678C1397.16 833.756 1502.41 860.565 1531.57 869.867C1556.2 877.725 1566.4 874.858 1567.27 872.345C1568.07 870.035 1562.88 864.414 1548.83 859.146C1527.42 851.116 1422.38 825.22 1260.47 814.678ZM1597.92 702.143C1597.75 702.143 1597.57 702.152 1597.4 702.167C1594.69 702.425 1591.78 704.78 1588.52 709.364C1586.85 711.704 1585.28 714.794 1587.24 716.225C1590.67 718.733 1601.55 717.138 1611.46 711.372C1611.38 711.296 1611.3 711.22 1611.22 711.146C1605.98 706.142 1601.8 702.143 1597.92 702.143ZM1710.35 488.441C1712.68 488.441 1714.22 491.317 1715.47 497.909C1719.2 517.615 1723.52 551.165 1722.88 599.089C1722.57 621.956 1722.83 633.79 1723.2 639.898C1724.27 634.035 1725.88 622.759 1728.22 601.136C1733.09 555.944 1737.54 538.881 1744.64 538.176C1745.83 538.055 1746.94 538.454 1747.85 539.319C1752.45 543.672 1752.02 561.354 1750.92 585.86C1750.74 589.732 1750.57 593.434 1750.47 596.763C1750.36 600.102 1750.66 601.56 1750.86 602.15C1752.58 601.034 1756.07 595.588 1760.38 586.847C1761.29 578.846 1762.38 570.697 1763.68 562.509C1765.51 550.968 1767.01 542.524 1768.26 536.339C1768.25 536.326 1768.24 536.314 1768.23 536.303C1766.83 534.745 1764.82 533.299 1762.69 531.77C1755.59 526.67 1745.87 519.687 1749.64 500.678C1754 478.627 1782.17 479.529 1797.31 480.005C1799.31 480.069 1801.07 480.111 1802.5 480.117C1823.96 479.979 1841.22 471.03 1856.84 451.958C1863.57 443.732 1869.83 437.916 1875.97 434.336C1873.03 426.264 1881.62 414.197 1888.28 405.868C1886.82 407.085 1884.76 408.937 1882.32 411.135C1869.41 422.753 1847.82 442.198 1835.07 440.285C1828.33 439.273 1822.78 434.052 1819.83 425.958C1819.7 425.579 1819.57 425.197 1819.44 424.815C1817 426.153 1813.98 427.313 1810.22 428.139C1797.35 430.971 1795.55 435.483 1793.47 440.706C1791.65 445.271 1789.59 450.444 1780.32 454.226C1771.76 457.721 1762.97 463.244 1755.91 467.681C1745.77 474.054 1741.56 476.559 1739.11 474.525C1737.31 473.041 1738.07 470.297 1739.04 467.811C1742.98 457.775 1755.84 443.993 1768.27 430.662C1774.45 424.038 1780.28 417.782 1784.82 412.221C1805.58 386.756 1817.11 372.126 1823.26 363.932C1817.19 369.916 1809.03 378.354 1802.33 385.284C1777.86 410.606 1777.7 410.508 1775.85 409.301C1775.23 408.897 1774.69 407.981 1775.2 406.731C1783.93 385.297 1782.6 364.787 1776.26 357.342C1776.21 357.273 1776.15 357.209 1776.1 357.147C1776.06 357.968 1776.06 358.952 1776.06 359.827C1776.04 367.845 1776 382.77 1760.58 383.733C1756.62 383.991 1752.71 382.256 1749.27 378.746C1747.79 377.23 1746.42 375.41 1745.19 373.375C1744.66 385.872 1742.09 400.51 1733.11 401.736C1727.84 402.461 1726.85 397.137 1726.06 392.86C1725.43 389.418 1724.78 385.859 1722.5 384.98C1716.87 382.805 1712.39 378.735 1710.22 373.814C1709.18 371.455 1708.75 369.044 1708.93 366.886C1702.04 370.859 1693.36 371.351 1683.06 368.345C1670.94 364.808 1663.29 356.597 1662.07 345.818C1661.05 336.778 1665.16 327.764 1672.07 323.901C1673.29 323.22 1674.06 322.679 1674.54 322.285C1671.04 322.117 1660.87 324.558 1652.11 332.622C1646.55 337.744 1639.4 341.639 1631.98 343.816C1633.98 345.91 1636.19 348.218 1638.59 350.714C1655.23 368.069 1679.41 393.29 1695.94 414.108C1695.36 402.597 1696.44 398.138 1699.19 397.097C1701.74 396.136 1704.57 398.267 1708.66 404.23C1717.11 416.571 1721.52 443.427 1718.49 448.721C1717.67 450.168 1716.43 450.242 1715.94 450.212C1714.2 450.093 1712.45 448.535 1709.54 441.317C1707.86 437.162 1704.7 431.966 1700.52 426.111C1701.22 433.286 1702.08 440.283 1702.6 444.588C1703.78 454.206 1702.84 459.095 1699.57 460.439C1693.6 462.861 1683.87 450.962 1668.54 431.046C1663.84 424.928 1659.39 419.149 1655.69 414.941C1639.66 396.73 1604.5 375.388 1579.66 373.883C1568.73 373.215 1561.29 375.578 1554.09 377.863C1572.82 396.645 1594.3 422.414 1601.07 435.249C1603.76 440.339 1604.09 444.03 1602.1 446.534C1597.41 452.411 1581.03 448.065 1563.68 443.463C1559.55 442.366 1555.28 441.233 1551.41 440.316C1527.91 434.754 1515.78 430.401 1489.78 415.233C1495.42 421.433 1501.57 429.721 1498.42 435.813C1498.27 436.108 1498.1 436.395 1497.9 436.669C1522.44 441.222 1549.51 447.651 1573.17 455.791C1582.15 458.883 1586.24 464.32 1589.52 468.69C1593.02 473.335 1595.12 476.142 1601.37 474.81C1614.52 472.008 1622.31 457.041 1622.66 447.768C1622.69 446.956 1622.79 444.49 1624.84 444.249C1626.42 444.062 1627.9 443.896 1633.85 460.361C1637.07 469.272 1640.2 479.304 1641.75 484.855C1644.84 495.954 1650.75 501.839 1657.92 501.08C1661.88 500.646 1666.02 498.048 1669.12 493.792C1664.99 489.114 1661.75 484.285 1660.26 479.898C1657.57 471.976 1659.73 466.391 1662.65 463.803C1665.09 461.65 1668.35 461.157 1671.17 462.521C1673.34 463.568 1678.32 467.314 1677.67 479.412C1677.4 484.506 1675.94 489.302 1673.66 493.322C1684.23 504.351 1699.49 514.009 1704.63 513.029C1705.12 512.937 1705.79 512.81 1705.7 511.091C1705.3 502.878 1705.31 489.018 1710 488.463C1710.12 488.448 1710.24 488.441 1710.35 488.441ZM1771.43 538.994C1770.3 544.796 1768.92 552.594 1767.26 563.076C1766.57 567.427 1765.94 571.762 1765.36 576.072C1766.26 574.016 1767.17 571.854 1768.1 569.599C1770.64 563.401 1772.49 550.845 1773.4 540.14C1772.71 539.783 1772.05 539.399 1771.43 538.994ZM1895.91 565.391C1893.85 565.391 1892.34 565.738 1891.84 566.295C1891.68 566.475 1891.84 566.9 1892.01 567.222C1892.77 568.731 1893.74 568.923 1894.4 568.939C1895.93 568.955 1898.06 567.911 1900.15 565.801C1898.6 565.518 1897.16 565.391 1895.91 565.391ZM1936.69 565.324C1939.43 566.348 1942.24 566.507 1944.53 565.602C1949.27 563.723 1950.55 559.263 1950.21 556.015C1949.98 553.845 1948.85 551.165 1946.41 550.757C1944.53 550.451 1942.15 551.784 1940.23 554.266C1938.29 556.765 1936.67 560.702 1936.69 565.324ZM1578.71 552.398C1577.17 552.398 1575.74 552.822 1574.71 553.671C1573.3 554.821 1572.9 556.551 1573.55 558.675C1575.21 564.102 1580.51 566.012 1590.29 564.516C1589.02 557.561 1585.3 554.679 1583.36 553.625C1581.86 552.806 1580.23 552.398 1578.71 552.398ZM1690.71 539.169C1690.66 539.169 1690.62 539.177 1690.6 539.187C1688.86 540.14 1689.42 551.046 1689.96 561.593C1690.01 562.518 1690.06 563.463 1690.11 564.423C1693.78 563.854 1696.47 561.738 1698.03 559.285C1701.39 554.003 1700.81 545.819 1693.21 540.395C1691.77 539.362 1690.99 539.169 1690.71 539.169ZM1283.41 552.46C1282.86 552.46 1282.43 552.57 1282.12 552.748C1281.43 553.153 1281.3 553.929 1281.31 554.51C1281.35 556.34 1282.93 559.268 1287.22 561.494C1288.85 562.336 1290.57 562.913 1292.36 563.229C1292.32 559.064 1290.74 555.723 1287.92 554.028C1286.01 552.877 1284.48 552.46 1283.41 552.46ZM1422.21 536.018C1421.74 536.018 1421.36 536.204 1421.06 536.396C1417.86 538.48 1415.59 547.444 1418.96 557.508C1423.01 553.985 1425.33 549.923 1426.2 546.54C1427.2 542.645 1426.48 539.18 1424.22 537.029C1423.42 536.263 1422.76 536.018 1422.21 536.018ZM2126.05 550.01C2128.54 551.742 2131.68 552.845 2135.7 553.046C2141.41 553.348 2145.94 550.889 2147.87 546.521C2149.14 543.645 2148.88 540.496 2147.24 538.863C2145.52 537.153 2142.46 537.162 2138.62 538.886C2133.4 541.232 2129.06 545.121 2126.05 550.01ZM2191.08 538.858C2190.99 539.07 2190.89 539.284 2190.79 539.498C2190.01 541.223 2190.17 541.728 2190.18 541.734C2190.6 542.135 2192.99 542.176 2194.92 542.188C2193.55 541.205 2192.26 540.093 2191.08 538.858ZM1785.72 539.897C1787.73 540.05 1789.76 539.969 1791.7 539.594C1794.75 539.01 1798.71 537.404 1800.31 533.075C1802.74 526.443 1801.24 519.5 1798.32 517.948C1796.17 516.805 1793.07 518.714 1789.84 523.196C1786.33 528.056 1784.92 534.001 1785.72 539.897ZM1772.22 535.094C1772.67 535.455 1773.17 535.807 1773.71 536.145C1773.93 532.711 1774.05 529.616 1774.04 527.177C1773.55 529.04 1772.94 531.594 1772.22 535.094ZM2187.46 518.456C2187.38 518.456 2187.3 518.473 2187.24 518.51C2186.87 518.732 2186.08 520.047 2186.89 523.452C2187.57 526.288 2188.59 528.881 2189.91 531.192C2191.6 524.253 2189.94 520.271 2188.48 518.965C2188.11 518.639 2187.74 518.456 2187.46 518.456ZM1229.82 513.56C1229.08 513.56 1228.58 513.887 1228.23 514.19C1225.96 516.125 1224.85 522.013 1226.49 529.065C1229.65 527.697 1231.96 525.15 1233.17 522.333C1234.49 519.269 1234.47 515.507 1231.47 514.009C1230.82 513.681 1230.28 513.56 1229.82 513.56ZM1524.85 512.093C1524.49 512.093 1524.07 512.28 1523.81 512.424C1519.54 514.702 1514.89 521.294 1514 528.067C1520.18 525.483 1523.79 521.489 1525.23 517.651C1526.3 514.821 1525.9 512.78 1525.28 512.235C1525.17 512.132 1525.01 512.093 1524.85 512.093ZM1667.88 465.382C1666.89 465.382 1665.9 465.768 1665.05 466.516C1663 468.331 1661.57 472.493 1663.69 478.731C1664.96 482.459 1667.66 486.533 1671.12 490.532C1672.74 487.343 1673.83 483.526 1674.06 479.217C1674.6 469.013 1670.78 466.353 1669.6 465.782C1669.04 465.513 1668.46 465.382 1667.88 465.382ZM1310.19 469.459C1310.85 473.081 1313.04 476.518 1316.48 479.207C1318.6 480.862 1320.01 480.804 1320.32 480.522C1320.61 480.263 1320.8 479.048 1319.52 476.955C1316.97 472.781 1313.9 470.287 1310.19 469.459ZM2168.55 451.63C2170.56 453.066 2174.53 455.159 2179.64 456.705C2179.81 456.755 2179.98 456.802 2180.14 456.848C2180.09 456.785 2180.03 456.719 2179.97 456.657C2176.38 452.718 2171.68 451.768 2168.55 451.63ZM1699.91 419.219C1706.02 427.285 1710.68 434.464 1712.9 439.961C1714.18 443.141 1715.11 444.836 1715.71 445.727C1716.6 439.898 1713.59 417.845 1705.67 406.277C1702.33 401.407 1700.83 400.647 1700.45 400.528C1699.02 401.987 1699.2 410.066 1699.91 419.219ZM1433.64 432.297C1437.88 433.263 1444.66 434.585 1455.46 436.302C1470.43 438.681 1479.86 438.942 1485.77 438.253C1462.74 434.484 1443.64 432.642 1433.64 432.297ZM1881.38 435.71C1883.72 437.469 1887.8 438.359 1893.57 438.359C1897.61 438.359 1901.76 437.326 1903.13 436.484C1902.65 436.154 1901.62 435.596 1899.45 434.917C1894.38 433.334 1888.53 432.593 1881.38 435.71ZM1824.41 405.773C1824.11 405.773 1823.7 406.21 1823.56 406.357C1821.8 408.354 1820.95 413.234 1821.74 418.715C1825.07 415.526 1825.76 412.167 1825.9 410.749C1826.18 407.832 1825.12 406.058 1824.52 405.795C1824.49 405.78 1824.45 405.773 1824.41 405.773ZM1521.85 358.571C1519.04 358.571 1516.7 359.641 1515.2 360.942C1513.15 362.722 1512.24 365.163 1512.75 367.475C1513.58 371.182 1517.71 374.261 1524.39 376.145C1533.9 378.821 1540.58 377.981 1547.18 376.173C1538.13 367.432 1530.3 360.966 1526.1 359.375C1524.6 358.809 1523.17 358.571 1521.85 358.571ZM2099.42 362.281C2096.96 362.281 2094.79 363.181 2093.34 364.871C2092 366.427 2091.57 368.36 2092.21 369.915C2092.99 371.831 2095.3 373.034 2098.69 373.301C2104.06 373.722 2109.5 372.101 2114.01 368.794C2110.57 366.005 2106.45 363.691 2102.06 362.612C2101.16 362.391 2100.27 362.281 2099.42 362.281ZM1419.65 357.078C1423.35 359.407 1427.76 360.85 1432.3 361.022C1440.41 361.278 1447.17 357.536 1450.8 350.618C1454.97 342.675 1454.62 333.939 1449.87 327.251C1444.85 320.189 1436.02 316.849 1426.25 318.31C1414.34 320.088 1402.04 320.499 1392.36 311.988C1391.67 312.878 1391.03 313.813 1390.45 314.788C1385.32 323.388 1385.07 334.153 1389.76 345.1C1395.22 357.821 1404.9 362.522 1411.24 360.492C1412.72 360.018 1413.93 359.211 1414.86 358.134C1411.83 355.645 1409.41 352.555 1407.9 349.055C1405.2 342.795 1404.91 337.49 1407.13 334.868C1408.21 333.596 1409.77 333.099 1411.42 333.507C1415.16 334.438 1418.4 339.622 1420.1 347.375C1420.9 351.009 1420.71 354.334 1419.65 357.078ZM1410.31 336.99C1410.13 336.99 1410.01 337.073 1409.9 337.211C1409.17 338.067 1408.52 341.343 1411.23 347.619C1412.39 350.319 1414.25 352.761 1416.58 354.798C1417.1 352.895 1417.11 350.639 1416.57 348.15C1414.93 340.679 1412.07 337.402 1410.54 337.023C1410.46 337 1410.38 336.99 1410.31 336.99ZM1599.27 325.585C1597.68 325.585 1596.46 325.907 1595.77 326.52C1594.54 327.603 1595.61 330.378 1598.56 333.762C1602.95 338.798 1609.33 341.682 1617.01 342.103C1619.6 342.246 1622.28 342.098 1624.97 341.687C1623.31 339.917 1621.9 338.388 1620.77 337.127C1613.54 329.046 1604.46 325.585 1599.27 325.585ZM2084.8 310.869C2083.16 313.233 2082.67 316.157 2083.32 319.598C2083.77 321.908 2085.09 323.598 2086.87 324.122C2088.11 324.486 2089.36 324.2 2090.14 323.376C2091.31 322.152 2091.42 319.87 2090.46 317.116C2089.51 314.384 2087.36 312.678 2084.8 310.869ZM1332.16 299.574C1330.58 299.574 1328.94 300.058 1328.04 301.763C1326.8 304.131 1327.5 307.809 1329.61 309.96C1332.68 313.1 1336.71 314.654 1340.99 314.654C1341 314.654 1341 314.654 1341 314.654C1341.46 310.004 1340.85 305.992 1339.17 303.318C1337.92 301.311 1336.14 300.135 1333.75 299.719C1333.25 299.632 1332.71 299.574 1332.16 299.574ZM2003.5 254.458C2001.37 254.458 1999.56 254.916 1997.74 255.963C1996.49 256.687 1995.77 258.13 1995.77 259.923C1995.77 262.256 1996.95 264.448 1998.79 265.509C2000.93 266.747 2003.79 266.411 2007.04 264.529C2011.05 262.219 2012.68 259.047 2013.28 256.295C2009.19 255.153 2006.11 254.458 2003.5 254.458ZM1452.34 217.237C1452.26 217.237 1452.18 217.252 1452.1 217.28C1451.41 217.544 1450.55 219.282 1451.64 222.288C1452.39 224.378 1454 226.163 1456.05 227.393C1456.2 225.072 1455.81 222.619 1454.86 220.206C1454.08 218.202 1453.04 217.237 1452.34 217.237ZM2035.82 206.639C2033.25 206.639 2031.22 207.741 2030.79 208.807C2030.34 209.908 2031.73 211.512 2034.41 212.994C2038.93 215.501 2043.26 213.527 2045.45 212.127C2045.83 211.885 2046.19 211.627 2046.55 211.354C2044.19 209.311 2041.39 207.817 2038.22 206.959C2037.39 206.737 2036.58 206.639 2035.82 206.639ZM1989.01 174.747C1987.67 174.747 1986.39 174.926 1985.2 175.292C1981.43 176.445 1978.85 179.328 1977.76 183.628C1976.39 189 1979.02 191.936 1981.7 192.816C1985.24 193.988 1990.32 192.162 1993.08 185.398C1994.55 181.784 1994.44 178.489 1993.56 175.374C1992 174.961 1990.47 174.747 1989.01 174.747ZM1552.43 168.654C1548.33 169.775 1544.79 172.111 1542.85 175.037C1541.23 177.499 1541.58 179.687 1542.74 180.495C1544.03 181.404 1546.72 180.656 1549.53 176.861C1551.25 174.531 1552.23 171.699 1552.43 168.654ZM1907.11 132.06C1905.7 132.696 1904.26 133.524 1902.78 134.543C1897.73 138.017 1895.66 143.468 1896.29 146.832C1896.61 148.579 1897.57 149.659 1899.15 150.04C1901.22 150.537 1903.09 149.943 1904.72 148.268C1907.83 145.085 1909.03 138.883 1907.58 133.52C1907.45 133.004 1907.29 132.518 1907.11 132.06ZM1792.63 101.076C1792.51 102.178 1792.52 103.282 1792.58 104.349L1792.62 105.101C1793.08 113.191 1793.72 124.269 1781.6 132.529C1777.22 135.507 1775.08 139.073 1775.73 142.314C1776.31 145.223 1779.09 147.469 1783.18 148.322C1787.86 149.302 1793.22 147.77 1797.54 144.236C1802.73 139.987 1805.68 133.473 1805.62 126.366C1805.56 117.027 1799.08 107.881 1792.63 101.076ZM1441.19 130.806C1440.56 133.724 1440.6 136.616 1441.1 138.843C1441.64 141.231 1442.34 142.539 1442.81 143.16C1443.09 142.263 1443.38 140.313 1443.08 136.731C1442.92 134.799 1442.25 132.755 1441.19 130.806ZM1561.76 112.248C1561.05 112.248 1560.25 112.497 1559.81 112.654C1556.52 113.85 1553.15 118.689 1553.01 124.93C1557.3 124.092 1559.88 121.433 1560.83 120.258C1563.41 117.083 1563.74 113.793 1562.98 112.734C1562.72 112.37 1562.27 112.248 1561.76 112.248ZM1648.34 83.4009C1655.08 87.2955 1662.83 88.9851 1668.53 87.8193C1671.22 87.2709 1674.52 85.8081 1674.95 81.9627C1675.22 79.5291 1674.37 77.6343 1672.51 76.4829C1669.26 74.4861 1662.4 74.5587 1652.86 80.7687C1651.33 81.7617 1649.83 82.6389 1648.34 83.4009ZM1765.4 68.7753C1764.07 68.7753 1763.06 69.1131 1762.48 69.6135C1762 70.0347 1762.03 70.3989 1762.11 70.6695C1762.43 71.8191 1764.83 74.0673 1771.74 75.1995C1773.15 75.4311 1774.52 75.5973 1775.85 75.7035C1774.62 73.2009 1772.9 71.1363 1769.83 69.8013C1768.16 69.0705 1766.64 68.7753 1765.4 68.7753Z" fill="black"/>
</svg>
